<?xml version="1.0" encoding="utf-8"?>
<!-- Generator: Adobe Illustrator 16.0.0, SVG Export Plug-In . SVG Version: 6.00 Build 0)  -->
<!DOCTYPE svg PUBLIC "-//W3C//DTD SVG 1.1//EN" "http://www.w3.org/Graphics/SVG/1.1/DTD/svg11.dtd">
<svg version="1.1" id="Layer_1" xmlns="http://www.w3.org/2000/svg" xmlns:xlink="http://www.w3.org/1999/xlink" x="0px" y="0px"
	 width="500px" height="500px" viewBox="0 0 500 500" enable-background="new 0 0 500 500" xml:space="preserve">
<g>
	<path fill="#EBB15B" d="M220.145,181.61h72.506l19.323-49.847h-14.118l-18.141,32.133c0,0-64.839-10.451-62.594-11.406
		L220.145,181.61z"/>
	<rect x="7.174" y="93.49" fill="#969696" width="485.648" height="50.601"/>
	<polygon opacity="0.4" fill="#878787" points="7.174,93.49 7.174,144.091 492.822,144.091 	"/>
	<path fill="#EBB15B" d="M298.958,87.183l26.043,0.337l-3.229,18.131l-20.5-1.735C301.271,103.916,299.939,90.824,298.958,87.183z"
		/>
	<g>
		<path fill="#FECD87" d="M212.387,137.392l10.463-12.231l-1.531-1.252l-5.593-4.587l-1.001-0.825l0.025-2.942l0.181-24.448
			l0.065-11.653l0.023-2.585l11.575,1.665l14.08,2.032l28.992,4.185v12.634l-3.359,7.564l-0.116,0.242l5.779,15.048l-8.973,5.497
			l-6.075,17.618h-11.845l-3.752-3.073l-5.009,7.947C228.984,144.931,219.189,140.48,212.387,137.392z"/>
		<path fill="#5D3A22" d="M214.751,115.549l0.985,3.777l5.588,4.572c0,0,8.11-8.796,9.506-10.311l-5.688-6.362l1.443-6.835
			l7.23-2.701l2.887,4.416c6.035-6.649,11.017-15.466,10.117-14.897l-6.148-6.634l-25.655-3.696L214.751,115.549z"/>
		<path opacity="0.4" fill="#878787" d="M214.932,91.106c16.089,5.532,40.441,11.352,51.376,13.841l3.359-7.564V84.749
			l-28.992-4.185l-14.08-2.032c-4.225,0.257-8.148,0.574-11.598,0.92L214.932,91.106z"/>
		<g>
			<path fill="#EA7A24" d="M273.238,89.698c0,0,8.555,1.212,10.445,3.616c1.524,1.936,6.413,10.526,1.479,10.23
				c-4.935-0.302-81.276-15.717-78.781-19.192c2.495-3.46,1.172-6.77,8.864-4.984L273.238,89.698z"/>
			<path fill="#F8941D" d="M211.61,80.68c0,0,9.963,7.438,30.501,10.954c17.99,3.083,33.5,2.957,33.5,2.957
				c1.102-4.984,1.56-9.5,1.479-13.58c-0.011-1.157-0.091-2.258-0.191-3.334c-1.811-18.774-15.863-27.154-30.315-28.024
				c-14.497-0.865-27.375,7.755-32.578,20.495c-0.075,0.181-0.156,0.357-0.221,0.543C212.576,73.81,211.824,77.169,211.61,80.68z"/>
			<path fill="#EA7A24" d="M213.785,70.691c0.045-0.025,0.103-0.065,0.153-0.105c0.516-0.337,1.292-0.8,2.228-1.443
				c0.478-0.322,0.993-0.679,1.574-1.056c0.599-0.332,1.225-0.724,1.904-1.126c0.669-0.408,1.38-0.835,2.137-1.298
				c0.777-0.407,1.592-0.84,2.444-1.277c0.42-0.227,0.85-0.468,1.29-0.704c0.44-0.227,0.911-0.413,1.375-0.624
				c0.946-0.408,1.884-0.9,2.9-1.278c1.003-0.367,2.042-0.749,3.101-1.131c1.094-0.292,2.18-0.604,3.299-0.916
				c1.136-0.176,2.281-0.453,3.45-0.604c0.578-0.055,1.169-0.101,1.755-0.146l0.891-0.09l0.89,0.01c0.591,0,1.184,0.005,1.78,0.005
				c0.599,0.035,1.187,0.121,1.786,0.171c1.199,0.055,2.369,0.387,3.548,0.594c0.576,0.151,1.152,0.337,1.73,0.508l0.872,0.247
				l0.83,0.327c0.563,0.231,1.134,0.428,1.69,0.669c0.543,0.251,1.081,0.518,1.624,0.78c2.128,1.111,4.169,2.358,6.01,3.797
				c0.946,0.669,1.791,1.469,2.676,2.163c0.825,0.78,1.675,1.499,2.435,2.278c1.569,1.509,2.938,3.068,4.204,4.517
				c1.228,1.469,2.364,2.827,3.29,4.099c0.522,0.699,1.006,1.358,1.438,1.956c-0.011-1.157-0.091-2.258-0.191-3.334
				c-0.664-1.323-1.479-2.766-2.424-4.28c-1.087-1.68-2.304-3.49-3.793-5.261c-0.709-0.92-1.549-1.76-2.363-2.676
				c-0.875-0.86-1.74-1.76-2.727-2.585c-1.9-1.715-4.108-3.249-6.498-4.577c-2.363-1.368-5.024-2.309-7.732-3.048
				c-1.378-0.257-2.756-0.604-4.149-0.669c-0.702-0.05-1.406-0.141-2.098-0.151c-0.691,0.01-1.385,0.03-2.067,0.05l-1.031,0.03
				l-1.021,0.126c-0.674,0.096-1.348,0.181-2.009,0.282c-1.313,0.247-2.59,0.599-3.845,0.9c-1.212,0.438-2.409,0.85-3.561,1.292
				c-1.104,0.533-2.19,1.046-3.246,1.554c-1.029,0.533-1.967,1.152-2.912,1.7c-0.458,0.297-0.916,0.558-1.353,0.86
				c-0.415,0.302-0.833,0.609-1.229,0.9c-0.805,0.599-1.574,1.177-2.301,1.725c-0.684,0.593-1.33,1.167-1.934,1.705
				c-0.599,0.533-1.174,1.031-1.683,1.499c-0.495,0.493-0.925,0.971-1.33,1.383c-0.667,0.679-1.194,1.277-1.587,1.71
				C213.931,70.33,213.851,70.505,213.785,70.691z"/>
			<path fill="#EA7A24" d="M252.587,93.49c0,0,2.462-7.187,1.137-8.369c-1.325-1.177-16.833-4.899-18.023-4.079
				c-1.189,0.815-3.862,9.41-3.387,9.948L252.587,93.49z"/>
		</g>
	</g>
	<path fill="#FECD87" d="M261.313,282.923l20.344,11.845l4.234,30.196l-19.373-13.846c0,0-9.43-17.15-10.647-17.528L261.313,282.923
		z"/>
	<g>
		<path fill="#EA7A24" d="M160.938,348.36l18.526-76.607l0.254-0.891c4.411,9.46,17.309,37.036,26.87,56.626l-14.502,34.416
			l-24.858,28.23l-36.838-3.561L160.938,348.36z"/>
		<polygon fill="#303030" points="130.39,386.574 167.228,390.135 142.777,424.883 159.742,434.037 163.036,449.97 103.825,434.037 
					"/>
		<polygon fill="#FECD87" points="243.979,225.447 243.806,227.423 243.969,225.452 		"/>
		<polygon fill="#FECD87" points="239.433,247.194 234.738,268.368 243.806,227.423 		"/>
		<path fill="#FECD87" d="M218.561,382.636c-0.158-19.151-0.38-34.984-0.85-34.235C218.249,347.53,218.453,361.171,218.561,382.636z
			"/>
		<path fill="#303030" d="M245.36,209.016l-29.384,8.042l-8.213-47.709l32.448-12.664c0,0,8.19,11.648,12.113,24.589L245.36,209.016
			z"/>
		<path fill="#303030" d="M212.387,137.392c6.802,3.088,16.597,7.539,23.93,10.833l-0.022,0.045l0.022,0.045l-35.357,2.47
			L212.387,137.392z"/>
		<path fill="#F8941D" d="M178.154,267.508l14.942-49.625l-5.877-51.008l13.74-16.089l35.357-2.47l3.893,8.369l-32.448,12.664
			l8.213,47.709l29.384-8.042l-1.391,16.436l-0.164,1.972l-9.068,40.945l17.706,60.016l-3.794,61.082l0.174-2.892h-30.232
			c0,1.242,0,2.515,0.005,3.771h-0.005c-0.01-2.67-0.02-5.235-0.03-7.71c-0.108-21.465-0.312-35.105-0.85-34.235
			c-0.382,0.634-5.082-8.539-11.123-20.912c-9.561-19.59-22.458-47.166-26.87-56.626
			C178.732,268.745,178.154,267.508,178.154,267.508z"/>
		<path fill="#303030" d="M248.823,386.574l-0.174,2.892l-2.336,37.746l21.553,9.47l6.629,14.088l-55.856-4.416
			c0,0,0.05-22.617,0-46.09c-0.018-3.324-0.033-6.634-0.043-9.918c-0.005-1.257-0.005-2.529-0.005-3.771H248.823z"/>
	</g>
	<path fill="#FECD87" d="M217.467,181.49l-3.367,62.234l41.771,49.866l13.092-2.489l-34.532-53.146c0,0,10.215-60.092,10.165-60.248
		L217.467,181.49z"/>
</g>
</svg>
