<?xml version="1.0" encoding="utf-8"?>
<!-- Generator: Adobe Illustrator 16.0.0, SVG Export Plug-In . SVG Version: 6.00 Build 0)  -->
<!DOCTYPE svg PUBLIC "-//W3C//DTD SVG 1.1//EN" "http://www.w3.org/Graphics/SVG/1.1/DTD/svg11.dtd">
<svg version="1.1" id="Layer_1" xmlns="http://www.w3.org/2000/svg" xmlns:xlink="http://www.w3.org/1999/xlink" x="0px" y="0px"
	 width="500px" height="500px" viewBox="0 0 500 500" enable-background="new 0 0 500 500" xml:space="preserve">
<g>
	<path fill="#303030" d="M205.249,317.153l-5.281,0.472L37.044,331.569c3.486-4.491,6.947-8.651,10.429-12.476
		c54.385-60.375,105.978-41.608,134.573-22.07c7.311,5.003,13.123,10.055,17.09,13.835
		C203.103,314.627,205.249,317.153,205.249,317.153z"/>
	<path opacity="0.4" fill="#878787" d="M199.968,317.625L37.044,331.569c3.486-4.491,6.947-8.651,10.429-12.476
		c36.052-5.95,104.293-17.178,134.573-22.07c7.311,5.003,13.123,10.055,17.09,13.835L199.968,317.625z"/>
	<g>
		<polygon fill="#969696" points="214.912,311.414 207.231,346.797 87.304,401.222 18.115,333.715 139.704,319.95 		"/>
	</g>
	<path fill="#303030" d="M52.279,412.52c6.591,0,11.959,5.363,11.959,11.96s-5.368,11.96-11.959,11.96
		c-6.599,0-11.964-5.363-11.964-11.96S45.681,412.52,52.279,412.52L52.279,412.52z M52.279,396.38
		c-15.523,0-28.107,12.581-28.107,28.1c0,15.523,12.583,28.109,28.107,28.109c15.521,0,28.102-12.586,28.102-28.109
		C80.381,408.961,67.8,396.38,52.279,396.38L52.279,396.38z"/>
	<path fill="#636464" d="M255.511,260.618c-1.825-0.576-3.765,0.446-4.331,2.271l-25.701,82.284L50.896,421.312
		c-1.752,0.762-2.556,2.802-1.792,4.552c0.569,1.303,1.839,2.075,3.175,2.075c0.458,0,0.93-0.091,1.381-0.286l109.544-47.773
		l39.678,28.972c0.604,0.437,1.321,0.662,2.043,0.662c0.483,0,0.972-0.096,1.431-0.312c1.135-0.516,1.905-1.604,2.015-2.847
		l4.138-47.969l17.185-7.504c0.922-0.396,1.619-1.178,1.917-2.14l26.167-83.793C258.35,263.13,257.338,261.185,255.511,260.618z
		 M202.003,399.643l-31.453-22.972l34.741-15.147L202.003,399.643z"/>
	<polygon opacity="0.4" fill="#878787" points="214.912,311.414 207.231,346.797 87.304,401.222 139.704,319.95 	"/>
</g>
<g>
	<path fill="#EBB15B" d="M280.65,245.386l-23.794-0.271l-19.321,23.999c0,0,39.31-12.391,42.307-11.648L280.65,245.386z"/>
	<path fill="#EBB15B" d="M366.658,180.142l-29.353,55.726l-62.074,21.599l-10.064-8.947l57.502-28.195
		c0,0,22.296-57.42,22.416-57.52L366.658,180.142z"/>
	<g>
		<polygon fill="#FECD87" points="371.44,116.807 370.428,117.642 364.773,122.273 340.764,141.924 328.795,141.924 322.659,124.12 
			313.602,118.562 319.432,103.359 319.321,103.108 315.928,95.477 315.928,82.698 345.22,78.477 359.45,76.422 371.14,74.74 
			371.164,77.347 371.234,89.131 371.415,113.833 		"/>
		<path fill="#5D3A22" d="M371.415,113.822l-0.997,3.822l-5.645,4.619c0,0-8.195-8.897-9.608-10.421l5.759-6.421l-1.463-6.919
			l-7.309-2.719l-2.917,4.456c-6.096-6.714-11.138-15.622-10.226-15.055l6.216-6.701l25.919-3.729L371.415,113.822z"/>
		<path opacity="0.4" fill="#878787" d="M371.164,77.347c-3.483-0.343-7.453-0.669-11.714-0.925l-14.23,2.055l-29.292,4.221v12.779
			l3.394,7.631c11.047-2.517,35.653-8.396,51.913-13.977L371.164,77.347z"/>
		<g>
			<path fill="#EA7A24" d="M312.309,87.703c0,0-8.646,1.223-10.551,3.646c-1.539,1.965-6.477,10.641-1.494,10.341
				c4.982-0.296,82.124-15.877,79.607-19.381c-2.517-3.501-1.183-6.852-8.957-5.04L312.309,87.703z"/>
			<path fill="#F8941D" d="M374.588,78.587c0,0-10.064,7.526-30.816,11.078c-18.18,3.11-33.854,2.987-33.854,2.987
				c-1.113-5.042-1.574-9.604-1.494-13.727c0.016-1.16,0.085-2.281,0.19-3.374c1.84-18.969,16.03-27.44,30.636-28.31
				c14.646-0.875,27.659,7.837,32.912,20.707c0.08,0.18,0.16,0.363,0.23,0.554C373.615,71.655,374.377,75.039,374.588,78.587z"/>
			<path fill="#EA7A24" d="M372.393,68.502c-0.05-0.035-0.11-0.07-0.16-0.108c-0.521-0.335-1.299-0.819-2.246-1.463
				c-0.491-0.318-1.008-0.687-1.594-1.055c-0.602-0.341-1.233-0.744-1.92-1.148c-0.677-0.414-1.398-0.847-2.165-1.311
				c-0.787-0.414-1.599-0.847-2.472-1.298c-0.421-0.228-0.852-0.463-1.303-0.709c-0.441-0.226-0.912-0.411-1.394-0.629
				c-0.952-0.406-1.895-0.91-2.917-1.286c-1.013-0.376-2.07-0.759-3.138-1.15c-1.104-0.291-2.206-0.606-3.339-0.922
				c-1.147-0.178-2.295-0.446-3.479-0.606c-0.581-0.053-1.188-0.1-1.774-0.15l-0.902-0.093l-0.902,0.01
				c-0.596,0.002-1.192,0.007-1.794,0.015c-0.602,0.027-1.203,0.118-1.805,0.17c-1.213,0.055-2.396,0.394-3.589,0.599
				c-0.581,0.148-1.163,0.338-1.744,0.501l-0.882,0.256l-0.848,0.335c-0.566,0.236-1.143,0.434-1.699,0.669
				c-0.551,0.266-1.098,0.529-1.644,0.792c-2.146,1.123-4.211,2.383-6.07,3.839c-0.957,0.674-1.81,1.479-2.712,2.186
				c-0.832,0.782-1.689,1.509-2.456,2.303c-1.589,1.519-2.962,3.1-4.24,4.551c-1.243,1.491-2.396,2.867-3.333,4.155
				c-0.526,0.702-1.008,1.368-1.449,1.97c0.016-1.16,0.085-2.281,0.19-3.374c0.672-1.335,1.494-2.787,2.446-4.32
				c1.103-1.692,2.326-3.529,3.84-5.316c0.711-0.927,1.568-1.779,2.381-2.704c0.887-0.867,1.759-1.782,2.762-2.611
				c1.914-1.729,4.146-3.278,6.556-4.624c2.396-1.383,5.083-2.333,7.819-3.085c1.398-0.253,2.782-0.604,4.196-0.671
				c0.706-0.05,1.418-0.141,2.12-0.153c0.691,0.012,1.394,0.032,2.095,0.053l1.038,0.03l1.027,0.125
				c0.682,0.098,1.363,0.188,2.035,0.283c1.318,0.243,2.611,0.606,3.879,0.912c1.224,0.444,2.437,0.862,3.6,1.303
				c1.112,0.539,2.205,1.06,3.277,1.571c1.043,0.539,1.99,1.168,2.938,1.722c0.472,0.296,0.933,0.562,1.374,0.865
				c0.421,0.309,0.842,0.612,1.243,0.915c0.816,0.604,1.589,1.19,2.325,1.737c0.691,0.602,1.344,1.18,1.955,1.727
				c0.606,0.542,1.183,1.035,1.694,1.516c0.511,0.499,0.942,0.978,1.348,1.394c0.672,0.692,1.208,1.293,1.6,1.729
				C372.242,68.129,372.322,68.312,372.393,68.502z"/>
			<path fill="#EA7A24" d="M333.176,91.54c0,0-2.477-7.263-1.144-8.456c1.344-1.195,17.013-4.952,18.216-4.127
				c1.202,0.822,3.899,9.511,3.423,10.05L333.176,91.54z"/>
		</g>
	</g>
	<g>
		<polygon fill="#EA7A24" points="481.338,383.117 449.483,433.352 443.098,410.635 451.93,387.588 425.85,371.237 387.931,347.483 
			366.668,297.345 400.983,250.183 407.078,271.671 424.301,332.542 445.935,351.729 448.611,354.105 		"/>
		<polygon fill="#303030" points="481.338,383.117 449.483,433.352 443.077,410.635 451.93,387.588 425.85,371.237 445.935,351.729 
			448.611,354.105 		"/>
	</g>
	<path fill="#FECD87" d="M408.392,267.375c0,0-38.852,83.622-39.964,81.748c-0.512-0.813-0.737,17.483-0.893,38.575
		c0,4.517-0.024,9.183-0.05,13.829c-0.05,23.724,0,46.57,0,46.57l-56.435,4.461l6.696-14.229l21.774-9.569l-2.356-38.145
		l-0.181-2.917l-3.658-58.806l17.894-60.65l-4.746-21.39l-4.416-19.972l-0.181-2.005l-1.394-16.599l-2.997-35.197l3.228-6.93
		c0,0,0-0.025,0.03-0.025l4.942-10.734l3.935-8.451l0.025-0.05l-0.025-0.053l-12.135-19.26l24.32-5.707l11.999,14.032l11.549,13.523
		l5.304,6.218l8.576,10.05l-5.94,51.542L408.392,267.375z"/>
	<path fill="#303030" d="M390.658,155.644l-2.006,19.721l-10.175,50.753l-17.438,18.195l-8.856-9.007l-10.306-10.431l-8.426-44.641
		c3.955-13.067,12.235-24.844,12.235-24.844l3.935-8.451l0.025-0.05l-0.025-0.053c7.413-3.323,17.308-7.814,24.185-10.935
		l11.549,13.523L390.658,155.644z"/>
	<path fill="#FECD87" d="M276.034,259.22l-23.787-0.266l-19.325,23.995c0,0,39.313-12.391,42.31-11.645L276.034,259.22z"/>
	<path fill="#F8941D" d="M408.392,267.375c0,0-38.852,83.622-39.964,81.748c-0.606-0.987-0.792,16.24-0.897,42.385l-30.365-0.893
		l-3.839-61.723l17.894-60.65l-9.162-41.362l-1.574-18.604l29.693,8.123l8.301-48.219l-32.791-12.79l3.935-8.451l35.733,2.486
		l13.88,16.268l-5.94,51.542L408.392,267.375z"/>
	<path fill="#303030" d="M367.485,401.527c-0.05,23.724,0,46.57,0,46.57l-56.435,4.461l6.696-14.229l21.774-9.569l-2.356-38.145
		l-0.181-2.917h30.551C367.535,392.215,367.511,396.881,367.485,401.527z"/>
	<path fill="#FECD87" d="M366.658,193.981l-29.353,55.726l-62.074,21.598l-10.064-8.947l57.502-28.194
		c0,0,22.296-57.417,22.416-57.52L366.658,193.981z"/>
</g>
</svg>
