<?xml version="1.0" encoding="utf-8"?>
<!-- Generator: Adobe Illustrator 16.0.0, SVG Export Plug-In . SVG Version: 6.00 Build 0)  -->
<!DOCTYPE svg PUBLIC "-//W3C//DTD SVG 1.1//EN" "http://www.w3.org/Graphics/SVG/1.1/DTD/svg11.dtd">
<svg version="1.1" id="Layer_1" xmlns="http://www.w3.org/2000/svg" xmlns:xlink="http://www.w3.org/1999/xlink" x="0px" y="0px"
	 width="500px" height="500px" viewBox="0 0 500 500" enable-background="new 0 0 500 500" xml:space="preserve">
<g>
	<g>
		<g>
			<g>
				<path fill="#FECD87" d="M221.678,155.67l3.736-17.388l-2.155-0.411l-7.867-1.475l-1.413-0.276l-1.525-2.864l-12.729-23.792
					l-6.078-11.333l-1.345-2.527l12.161-4.507l14.794-5.509l30.472-11.333l6.674,12.251l0.709,9.122l0.022,0.287l13.562,11.525
					l-5.847,10.095l3.388,20.292l-11.553,6.286l-5.284-0.985l-0.287,17.163C242.224,160.983,229.928,155.063,221.678,155.67z"/>
			</g>
			<g>
				<path fill="#5D3A22" d="M212.455,133.257l2.949,3.14l7.867,1.452c0,0,3.258-12.83,3.821-15.025l-8.903-3.151l-2.2-7.395
					l5.622-6.455l5.149,2.746c2.369-9.645,2.571-20.838,1.992-19.797l-9.482-3.174l-26.966,10.017L212.455,133.257z"/>
			</g>
			<g opacity="0.4">
				<path fill="#878787" d="M199.726,109.465c18.598-3.174,45.418-10.45,57.387-13.838l-0.709-9.122l-6.674-12.251l-30.472,11.333
					l-14.794,5.509c-3.973,2.481-7.636,4.862-10.815,7.034L199.726,109.465z"/>
			</g>
			<g>
				<g>
					<path fill="#EA7A24" d="M255.83,77.152c0,0,8.97-3.359,12.088-2.025c2.504,1.063,11.806,6.803,6.831,9.127
						c-4.952,2.33-87.51,27.889-86.914,23.196c0.613-4.682-2.431-7.181,6.01-9.539L255.83,77.152z"/>
				</g>
				<g>
					<path fill="#F8941D" d="M190.981,101.119c0,0,13.646,1.925,35.525-5.565c19.161-6.556,34.219-14.901,34.219-14.901
						c-1.563-5.425-3.505-10.045-5.729-13.961c-0.63-1.097-1.271-2.138-1.946-3.129c-11.677-17.231-29.792-17.906-44.338-11.075
						c-14.586,6.854-22.588,22.042-20.945,37.152c0.023,0.208,0.045,0.428,0.079,0.642
						C188.302,93.956,189.349,97.597,190.981,101.119z"/>
				</g>
				<g>
					<path fill="#EA7A24" d="M187.847,90.281c0.022-0.057,0.067-0.118,0.09-0.18c0.332-0.597,0.838-1.469,1.413-2.577
						c0.292-0.563,0.613-1.193,0.979-1.863c0.405-0.642,0.816-1.362,1.261-2.11c0.433-0.754,0.906-1.536,1.396-2.38
						c0.546-0.821,1.108-1.671,1.705-2.538c0.298-0.45,0.585-0.906,0.895-1.373c0.31-0.45,0.659-0.883,1.013-1.339
						c0.703-0.895,1.351-1.869,2.144-2.774c0.788-0.889,1.592-1.807,2.431-2.735c0.912-0.867,1.807-1.75,2.724-2.639
						c1.024-0.782,1.987-1.644,3.05-2.42c0.529-0.354,1.086-0.72,1.632-1.075l0.827-0.557l0.873-0.473
						c0.574-0.292,1.159-0.608,1.733-0.923c0.608-0.282,1.227-0.518,1.834-0.782c1.193-0.585,2.51-0.878,3.771-1.311
						c0.642-0.152,1.294-0.282,1.958-0.428l0.974-0.22l0.985-0.124c0.669-0.073,1.328-0.191,1.998-0.253
						c0.659-0.034,1.334-0.073,2.003-0.101c2.656-0.045,5.301,0.067,7.856,0.489c1.271,0.146,2.521,0.484,3.742,0.681
						c1.227,0.315,2.437,0.557,3.584,0.912c2.324,0.642,4.474,1.423,6.471,2.155c1.97,0.776,3.804,1.485,5.386,2.217
						c0.866,0.411,1.683,0.788,2.425,1.131c-0.63-1.097-1.271-2.138-1.946-3.129c-1.351-0.923-2.898-1.896-4.626-2.858
						c-1.941-1.047-4.074-2.155-6.466-3.089c-1.182-0.512-2.448-0.878-3.72-1.339c-1.306-0.366-2.622-0.777-4.018-1.058
						c-2.757-0.647-5.717-0.962-8.745-0.996c-3.033-0.062-6.123,0.445-9.15,1.154c-1.48,0.478-3.005,0.878-4.401,1.559
						c-0.709,0.315-1.44,0.608-2.127,0.968c-0.664,0.377-1.328,0.76-1.981,1.137l-0.985,0.58l-0.939,0.67
						c-0.602,0.45-1.21,0.889-1.807,1.339c-1.142,0.934-2.211,1.947-3.27,2.915c-0.951,1.053-1.896,2.094-2.785,3.124
						c-0.799,1.114-1.582,2.183-2.358,3.241c-0.709,1.052-1.306,2.167-1.936,3.191c-0.281,0.534-0.596,1.03-0.855,1.547
						c-0.253,0.518-0.495,1.03-0.737,1.531c-0.461,1.007-0.9,1.969-1.328,2.892c-0.349,0.945-0.681,1.834-0.985,2.685
						c-0.304,0.833-0.602,1.621-0.85,2.341c-0.22,0.737-0.394,1.424-0.563,2.042c-0.298,1.019-0.495,1.874-0.653,2.504
						C187.791,89.848,187.813,90.067,187.847,90.281z"/>
				</g>
				<g>
					<path fill="#EA7A24" d="M237.699,91.795c0,0-1.396-8.272-3.309-8.711c-1.919-0.439-18.998,4.175-19.729,5.599
						c-0.72,1.429,1.205,11.176,1.947,11.452L237.699,91.795z"/>
				</g>
			</g>
		</g>
		<g>
			<path fill="#EBB15B" d="M248.441,195.186l54.844-44.214l17.529-62.244l-11.991-9.122l-25.751,58.654
				c0,0-58.209,36.831-58.305,36.982L248.441,195.186z"/>
		</g>
		<g>
			<g>
				<path fill="#EA7A24" d="M167.487,381.124l20.568-84.551l0.27-0.985c4.902,10.439,19.217,40.883,29.825,62.497l-16.1,37.99
					l-27.579,31.153l-40.883-3.934L167.487,381.124z"/>
			</g>
			<g>
				<polygon fill="#303030" points="133.588,423.295 174.471,427.229 147.341,465.567 166.159,475.674 169.811,493.26 
					104.101,475.674 				"/>
			</g>
			<g>
				<polygon fill="#FECD87" points="259.651,245.471 259.448,247.649 259.64,245.471 				"/>
			</g>
			<g>
				<polygon fill="#FECD87" points="254.604,269.472 249.387,292.837 259.448,247.649 				"/>
			</g>
			<g>
				<path fill="#FECD87" d="M231.441,418.95c-0.18-21.136-0.422-38.614-0.951-37.787C231.087,380.201,231.312,395.26,231.441,418.95
					z"/>
			</g>
			<g>
				<path fill="#303030" d="M261.176,227.34l-32.61,8.869l-16.674-60.533l43.573-6.094c0,0,9.088,12.858,13.438,27.129
					L261.176,227.34z"/>
			</g>
			<g>
				<path fill="#303030" d="M224.587,148.288c7.552,3.41,18.424,8.317,26.561,11.953l-0.034,0.05l0.034,0.056l-39.256,2.718
					L224.587,148.288z"/>
			</g>
			<g>
				<path fill="#F8941D" d="M186.597,291.88l16.573-54.754l-6.522-56.301l15.244-17.76l39.256-2.718l4.316,9.235l-43.573,6.094
					l16.674,60.533l32.61-8.869l-1.536,18.131l-0.191,2.178l-10.061,45.188l19.65,66.233l-4.209,67.415l0.191-3.19h-33.556
					c0,1.373,0,2.774,0.011,4.164h-0.011c-0.005-2.954-0.017-5.779-0.022-8.509c-0.129-23.69-0.354-38.749-0.951-37.787
					c-0.422,0.703-5.638-9.42-12.34-23.078c-10.608-21.614-24.923-52.058-29.825-62.497
					C187.239,293.253,186.597,291.88,186.597,291.88z"/>
			</g>
			<g>
				<path fill="#303030" d="M265.02,423.295l-0.191,3.19l-2.594,41.659l23.916,10.45l7.366,15.554l-61.997-4.885
					c0,0,0.062-24.951,0-50.859c-0.022-3.663-0.034-7.321-0.045-10.945c-0.011-1.39-0.011-2.791-0.011-4.164H265.02z"/>
			</g>
		</g>
		<g>
			<polygon fill="#EBB15B" points="309.419,81.092 309.914,62.274 331.484,44.34 343.993,75.577 332.491,88.131 319.244,95.441 			
				"/>
		</g>
		<g>
			<path fill="#FECD87" d="M224.745,201.814l52.79,46.64l73.481-1.998l6.972-13.342l-71.314-6.713c0,0-28.452-32.07-37.343-41.676
				L224.745,201.814z"/>
		</g>
		<g>
			<path fill="#303030" d="M372.861,421.28l-2.65-4.659c15.436-8.784,14.744-75.091,13.174-99.896
				c0-19.617-0.703-34.698-1.789-46.285c-1.835,17.642-4.469,33.443-6.956,42.785c-6.764,25.446-21.17,51.676-32.733,49.863
				c-8.222-1.339-11.407-14.855-9.73-41.338c2.387-37.574,19.353-94.995,37.102-94.995c0.084,0,0.18,0,0.265,0
				c3.455,0.118,6.438,2.296,8.953,6.59c0.377-26.229-2.224-48.631-9.668-52.025c-3.81-1.75-10.275,3.602-17.737,14.625
				c-7.563,11.159-13.95,15.577-19.538,13.522c-20.703-7.642-9.387-118.928-6.905-141.161l5.329,0.596
				c-5.976,53.555-8.857,131.004,3.428,135.528c1.328,0.501,5.233,0.327,13.246-11.485c9.623-14.214,17.613-19.605,24.4-16.505
				c11.778,5.369,14.052,37.625,12.374,70.415c3.563,14.844,5.324,37.996,5.324,69.7C389.333,325.853,393.986,409.26,372.861,421.28
				z M369.255,232.124c-10.552,0-29.004,47.151-31.728,89.958c-2.127,33.544,4.485,35.593,5.245,35.722
				c5.431,0.9,19.24-17.968,26.685-45.964c4.074-15.317,7.372-40.382,8.576-64.495c-3.404-13.871-7.405-15.188-8.66-15.222
				C369.333,232.124,369.3,232.124,369.255,232.124z"/>
		</g>
		<g>
			<polygon fill="#FECD87" points="357.988,233.114 381.854,225.337 393.931,252.185 357.1,255.921 349.143,246.496 			"/>
		</g>
	</g>
	<g>
		<g>
			<path fill="#878787" d="M314.197,11.594L314.197,11.594c5.425,0,10.292,3.63,11.851,8.835c1.271,4.26,0.146,8.897-2.932,12.116
				c-2.689,2.819-1.817,6.482-0.984,10.033c1.626,6.837,0.787,7.085-0.187,7.383c-0.377,0.112-0.636,0.135-0.776,0.135
				c-1.316,0-3.078-4.44-3.832-6.347c-1.396-3.517-2.712-6.849-6.331-7.822c-4.187-1.12-7.428-4.26-8.672-8.418
				c-1.946-6.539,1.778-13.444,8.313-15.396C311.811,11.769,313.004,11.594,314.197,11.594L314.197,11.594z M314.197,6.231
				c-1.688,0-3.394,0.236-5.076,0.743c-9.387,2.803-14.727,12.69-11.919,22.076c1.823,6.123,6.657,10.518,12.408,12.065
				c2.819,0.754,3.782,14.338,11.559,14.338c0.715,0,1.48-0.112,2.313-0.366c9.932-2.96,1.457-16.685,3.511-18.834
				c4.26-4.452,6.083-11.019,4.192-17.355C328.89,11.206,321.833,6.231,314.197,6.231L314.197,6.231z"/>
		</g>
	</g>
	<g>
		<polygon fill="#636464" points="333.634,66.714 321.338,70.389 316.116,52.871 328.395,49.208 		"/>
	</g>
	<g>
		<path fill="#636464" d="M354.455,432.141c-1.396,1.497-3.354,1.919-4.406,0.957l0,0c-1.03-0.968-0.749-2.954,0.63-4.451
			l6.556-7.068c1.396-1.502,3.354-1.919,4.4-0.956l0,0c1.036,0.968,0.766,2.954-0.63,4.457L354.455,432.141z"/>
	</g>
	<g>
		<path fill="#636464" d="M363.256,439.558c-1.396,1.497-3.376,1.896-4.474,0.878l0,0c-1.086-1.007-0.833-3.027,0.546-4.519
			l6.572-7.073c1.379-1.486,3.377-1.886,4.457-0.878l0,0c1.092,1.001,0.839,3.027-0.546,4.524L363.256,439.558z"/>
	</g>
	<g>
		<path fill="#878787" d="M371.714,434.555l5.081-5.48c4.029-4.345,3.782-11.131-0.563-15.166
			c-4.333-4.018-11.119-3.765-15.154,0.568l-5.087,5.487L371.714,434.555z"/>
	</g>
</g>
</svg>
