<?xml version="1.0" encoding="utf-8"?>
<!-- Generator: Adobe Illustrator 16.0.0, SVG Export Plug-In . SVG Version: 6.00 Build 0)  -->
<!DOCTYPE svg PUBLIC "-//W3C//DTD SVG 1.1//EN" "http://www.w3.org/Graphics/SVG/1.1/DTD/svg11.dtd">
<svg version="1.1" id="Layer_1" xmlns="http://www.w3.org/2000/svg" xmlns:xlink="http://www.w3.org/1999/xlink" x="0px" y="0px"
	 width="500px" height="500px" viewBox="0 0 500 500" enable-background="new 0 0 500 500" xml:space="preserve">
<g>
	<path fill="#FECD87" d="M279.08,131.416l-3.864-18.644l2.306-0.421l8.422-1.517l1.517-0.28l1.655-3.049l13.792-25.356l6.598-12.079
		l1.444-2.688l-12.967-4.924l-15.784-5.999l-32.504-12.356l-7.23,13.054l-0.828,9.746l-0.03,0.31L227.005,79.44l6.177,10.836
		l-3.771,21.687l12.311,6.814l5.659-1.017l2.483,17.509C259.371,136.082,270.255,130.7,279.08,131.416z"/>
	<path fill="#5D3A22" d="M289.121,107.499l-3.19,3.338l-8.416,1.499c0,0-3.389-13.746-3.973-16.112l9.541-3.292l2.414-7.898
		l-5.966-6.938l-5.52,2.896c-2.475-10.336-2.601-22.313-1.993-21.205l10.174-3.314l28.77,10.926L289.121,107.499z"/>
	<path opacity="0.4" fill="#878787" d="M309.505,70.07c-3.383-2.345-7.284-4.927-11.522-7.612l-15.784-5.999l-32.504-12.356
		l-7.23,13.054l-0.828,9.746c12.778,3.711,41.399,11.703,61.271,15.246L309.505,70.07z"/>
	<g>
		<path fill="#EA7A24" d="M243.153,47.159c0,0-9.581-3.663-12.922-2.275c-2.688,1.131-12.678,7.197-7.38,9.728
			c5.286,2.522,93.402,30.494,92.794,25.482c-0.614-5.018,2.666-7.678-6.346-10.255L243.153,47.159z"/>
		<path fill="#F8941D" d="M312.322,73.282c0,0-14.604,1.957-37.943-6.221c-20.45-7.164-36.493-16.2-36.493-16.2
			c1.713-5.788,3.82-10.722,6.231-14.89c0.674-1.174,1.388-2.275,2.107-3.329c12.624-18.349,32.008-18.93,47.509-11.516
			c15.556,7.447,24.002,23.751,22.123,39.906c-0.023,0.223-0.054,0.458-0.09,0.689C315.248,65.637,314.104,69.535,312.322,73.282z"
			/>
		<path fill="#EA7A24" d="M315.766,61.721c-0.024-0.063-0.066-0.129-0.097-0.196c-0.343-0.65-0.879-1.577-1.486-2.769
			c-0.319-0.614-0.639-1.276-1.029-2.001c-0.428-0.687-0.855-1.46-1.337-2.264c-0.457-0.804-0.951-1.652-1.469-2.564
			c-0.578-0.87-1.18-1.788-1.813-2.724c-0.307-0.481-0.619-0.978-0.944-1.472c-0.325-0.491-0.698-0.945-1.065-1.436
			c-0.753-0.963-1.439-2.014-2.282-2.986c-0.83-0.96-1.697-1.951-2.576-2.95c-0.976-0.936-1.914-1.881-2.896-2.847
			c-1.09-0.834-2.119-1.773-3.245-2.606c-0.565-0.385-1.155-0.777-1.733-1.162l-0.879-0.605l-0.927-0.502
			c-0.614-0.328-1.24-0.666-1.854-1.005c-0.645-0.313-1.301-0.566-1.95-0.855c-1.276-0.632-2.686-0.963-4.027-1.433
			c-0.681-0.172-1.391-0.313-2.089-0.47l-1.036-0.25l-1.06-0.142c-0.716-0.078-1.42-0.205-2.131-0.28
			c-0.71-0.04-1.427-0.082-2.143-0.124c-2.842-0.072-5.671,0.039-8.41,0.466c-1.366,0.147-2.703,0.488-4.016,0.698
			c-1.306,0.322-2.601,0.578-3.828,0.948c-2.501,0.659-4.807,1.484-6.944,2.249c-2.119,0.822-4.081,1.562-5.77,2.345
			c-0.939,0.421-1.818,0.825-2.612,1.186c0.674-1.174,1.388-2.275,2.107-3.329c1.448-0.984,3.115-2.005,4.97-3.031
			c2.082-1.107,4.379-2.27,6.938-3.253c1.265-0.539,2.625-0.918,3.991-1.397c1.402-0.391,2.817-0.815,4.311-1.104
			c2.949-0.677,6.122-0.99,9.36-0.996c3.239-0.051,6.538,0.512,9.783,1.297c1.57,0.533,3.202,0.966,4.689,1.7
			c0.758,0.35,1.534,0.666,2.263,1.054c0.711,0.409,1.421,0.831,2.119,1.237l1.054,0.617l0.987,0.726
			c0.645,0.487,1.294,0.963,1.933,1.448c1.216,1.005,2.342,2.104,3.467,3.139c1.012,1.147,2.017,2.261,2.962,3.377
			c0.843,1.186,1.674,2.342,2.492,3.474c0.759,1.144,1.379,2.327,2.047,3.431c0.308,0.575,0.632,1.107,0.903,1.667
			c0.265,0.551,0.529,1.104,0.776,1.641c0.487,1.083,0.957,2.113,1.402,3.1c0.367,1.011,0.711,1.975,1.036,2.875
			c0.313,0.897,0.626,1.74,0.879,2.519c0.24,0.789,0.421,1.529,0.602,2.191c0.295,1.081,0.506,2.001,0.668,2.679
			C315.832,61.254,315.802,61.489,315.766,61.721z"/>
		<path fill="#EA7A24" d="M262.429,62.955c0,0,1.554-8.837,3.606-9.297c2.053-0.455,20.293,4.623,21.063,6.149
			c0.765,1.529-1.379,11.943-2.173,12.223L262.429,62.955z"/>
	</g>
</g>
<path fill="#EBB15B" d="M263.946,186.011l-72.043-22.087l-39.217-68.169l8.277-13.825l45.95,61.322c0,0,72.456,13.418,72.612,13.542
	L263.946,186.011z"/>
<g>
	<path fill="#EA7A24" d="M337.479,368.534l-22.003-90.437l-0.289-1.06c-5.243,11.167-20.563,43.729-31.905,66.856l17.217,40.635
		l29.51,33.326l43.729-4.202L337.479,368.534z"/>
	<polygon fill="#303030" points="373.737,413.653 330.009,417.855 359.03,458.875 338.9,469.687 334.993,488.493 405.287,469.687 	
		"/>
	<polygon fill="#FECD87" points="238.891,223.421 239.096,225.757 238.9,223.424 	"/>
	<polygon fill="#FECD87" points="244.285,249.1 249.863,274.094 239.096,225.757 	"/>
	<path fill="#FECD87" d="M269.069,408.994c0.187-22.599,0.451-41.297,1.005-40.412C269.437,367.559,269.201,383.662,269.069,408.994
		z"/>
	<path fill="#303030" d="M237.248,204.028l34.885,9.49l17.831-64.762l-46.597-6.52c0,0-9.725,13.756-14.385,29.025L237.248,204.028z
		"/>
	<path fill="#303030" d="M276.39,119.464c-8.073,3.645-19.697,8.894-28.405,12.786l0.03,0.057l-0.03,0.048l41.979,2.914
		L276.39,119.464z"/>
	<path fill="#F8941D" d="M317.029,273.076l-17.734-58.582l6.983-60.227l-16.314-18.999l-41.979-2.914l-4.617,9.881l46.597,6.52
		l-17.831,64.762l-34.885-9.49l1.652,19.396l0.196,2.333l10.767,48.336l-21.028,70.86l4.512,72.112l-0.208-3.413h35.894
		c0,1.457,0,2.974-0.006,4.455h0.006c0.006-3.148,0.018-6.177,0.036-9.114c0.132-25.332,0.367-41.436,1.005-40.412
		c0.458,0.747,6.032-10.083,13.208-24.688c11.342-23.128,26.662-55.689,31.905-66.856
		C316.35,274.533,317.029,273.076,317.029,273.076z"/>
	<path fill="#303030" d="M233.139,413.653l0.208,3.413l2.772,44.565l-25.587,11.186l-7.868,16.633l66.315-5.22
		c0,0-0.06-26.704,0-54.42c0.024-3.919,0.036-7.825,0.049-11.702c0.006-1.481,0.006-2.998,0.006-4.455H233.139z"/>
</g>
<path fill="#FECD87" d="M274.733,177.52l-63.816,40.083l-77.218-14.881l-5.057-15.294l76.447,5.307c0,0,35.599-28.929,46.655-37.513
	L274.733,177.52z"/>
<polygon fill="#FECD87" points="128.643,187.428 93.778,169.36 93.778,213.519 125.624,211.67 135.662,203.101 "/>
<polygon fill="#EA7A24" points="119.607,127.365 144.917,31.155 152.686,33.304 133.182,131.588 "/>
<polygon fill="#969696" points="183.292,31.125 166.43,37.205 126.623,26.134 126.855,25.044 130.235,10.705 159.889,16.674 
	169.641,18.621 "/>
<polygon fill="#EBB15B" points="160.963,84.934 152.993,66.44 130.5,55.92 119.607,91.161 140.851,101.097 153.893,103.093 "/>
<polygon fill="#969696" points="97.123,15.804 108.115,15.804 108.115,10.72 111.459,10.72 111.459,26.851 107.998,26.628 
	107.998,21.294 97.123,21.52 "/>
<polygon opacity="0.4" fill="#878787" points="183.292,31.125 166.43,37.205 126.623,26.134 126.855,25.044 159.889,16.674 
	169.641,18.621 "/>
</svg>
