<?xml version="1.0" encoding="utf-8"?>
<!-- Generator: Adobe Illustrator 16.0.0, SVG Export Plug-In . SVG Version: 6.00 Build 0)  -->
<!DOCTYPE svg PUBLIC "-//W3C//DTD SVG 1.1//EN" "http://www.w3.org/Graphics/SVG/1.1/DTD/svg11.dtd">
<svg version="1.1" id="Layer_1" xmlns="http://www.w3.org/2000/svg" xmlns:xlink="http://www.w3.org/1999/xlink" x="0px" y="0px"
	 width="500px" height="500px" viewBox="0 0 500 500" enable-background="new 0 0 500 500" xml:space="preserve">
<g>
	<path fill="#FECD87" d="M209.416,161.256l3.646-16.956l-2.105-0.395l-7.665-1.439l-1.371-0.266l-1.491-2.791l-12.396-23.182
		l-5.927-11.045l-1.305-2.454l11.843-4.4l14.415-5.365l29.689-11.04l6.503,11.939l0.696,8.882l0.017,0.28l13.214,11.229
		l-5.691,9.836l3.295,19.771l-11.256,6.127l-5.154-0.965l-0.241,16.679C229.467,166.383,217.454,160.656,209.416,161.256z"/>
	<path fill="#5D3A22" d="M200.43,139.404l2.873,3.067l7.665,1.417c0,0,3.175-12.501,3.723-14.647l-8.668-3.065l-2.144-7.207
		l5.478-6.284l5.011,2.676c2.314-9.397,2.506-20.306,1.946-19.3l-9.244-3.086l-26.268,9.765L200.43,139.404z"/>
	<path opacity="0.4" fill="#878787" d="M188.033,116.228c18.121-3.095,44.252-10.187,55.914-13.482l-0.696-8.882l-6.503-11.939
		l-29.689,11.04l-14.415,5.365c-3.871,2.415-7.44,4.74-10.538,6.854L188.033,116.228z"/>
	<g>
		<path fill="#EA7A24" d="M242.691,84.751c0,0,8.74-3.276,11.783-1.985c2.434,1.044,11.497,6.632,6.65,8.904
			c-4.825,2.265-85.264,27.165-84.683,22.601c0.598-4.562-2.369-7.004,5.855-9.296L242.691,84.751z"/>
		<path fill="#F8941D" d="M179.513,108.092c0,0,13.296,1.88,34.608-5.415c18.669-6.39,33.341-14.524,33.341-14.524
			c-1.53-5.28-3.416-9.784-5.576-13.598c-0.614-1.072-1.25-2.075-1.897-3.046c-11.383-16.794-29.032-17.449-43.2-10.795
			c-14.217,6.675-22.014,21.479-20.407,36.195c0.017,0.203,0.039,0.417,0.071,0.628
			C176.897,101.112,177.922,104.667,179.513,108.092z"/>
		<path fill="#EA7A24" d="M176.453,97.537c0.027-0.055,0.066-0.118,0.088-0.173c0.329-0.589,0.817-1.434,1.381-2.517
			c0.285-0.551,0.592-1.157,0.949-1.815c0.4-0.619,0.795-1.321,1.233-2.053c0.417-0.729,0.877-1.5,1.354-2.325
			c0.532-0.792,1.08-1.617,1.661-2.47c0.291-0.439,0.576-0.886,0.872-1.333c0.307-0.441,0.642-0.861,0.987-1.305
			c0.686-0.869,1.316-1.82,2.094-2.703c0.762-0.869,1.552-1.76,2.369-2.67c0.883-0.844,1.749-1.702,2.654-2.571
			c0.993-0.759,1.936-1.601,2.966-2.355c0.521-0.348,1.058-0.699,1.596-1.047l0.8-0.545l0.85-0.452
			c0.56-0.291,1.13-0.592,1.694-0.902c0.592-0.277,1.195-0.507,1.782-0.765c1.162-0.567,2.451-0.858,3.673-1.277
			c0.625-0.154,1.267-0.277,1.908-0.411l0.948-0.222l0.959-0.124c0.652-0.066,1.3-0.178,1.947-0.238
			c0.647-0.036,1.299-0.069,1.952-0.107c2.588-0.042,5.165,0.077,7.654,0.485c1.245,0.143,2.456,0.463,3.651,0.664
			c1.195,0.302,2.369,0.54,3.493,0.886c2.264,0.619,4.354,1.384,6.3,2.097c1.919,0.756,3.707,1.45,5.242,2.168
			c0.85,0.395,1.65,0.765,2.374,1.099c-0.614-1.072-1.25-2.075-1.897-3.046c-1.322-0.904-2.83-1.85-4.513-2.793
			c-1.886-1.02-3.969-2.094-6.294-3.004c-1.157-0.502-2.39-0.855-3.624-1.305c-1.277-0.362-2.561-0.759-3.92-1.031
			c-2.681-0.636-5.565-0.943-8.515-0.97c-2.961-0.066-5.971,0.425-8.915,1.119c-1.442,0.474-2.934,0.86-4.288,1.519
			c-0.696,0.313-1.409,0.598-2.073,0.946c-0.652,0.367-1.294,0.743-1.936,1.11l-0.959,0.559l-0.916,0.652
			c-0.592,0.439-1.179,0.866-1.76,1.305c-1.113,0.907-2.155,1.905-3.18,2.837c-0.938,1.036-1.853,2.045-2.72,3.054
			c-0.773,1.078-1.541,2.125-2.292,3.15c-0.696,1.034-1.278,2.111-1.892,3.112c-0.274,0.521-0.582,1.003-0.833,1.513
			c-0.247,0.496-0.482,1-0.718,1.486c-0.444,0.984-0.877,1.924-1.294,2.815c-0.334,0.924-0.664,1.79-0.959,2.613
			c-0.296,0.817-0.581,1.582-0.822,2.289c-0.214,0.715-0.39,1.39-0.554,1.99c-0.285,0.984-0.482,1.82-0.63,2.434
			C176.398,97.112,176.42,97.326,176.453,97.537z"/>
		<path fill="#EA7A24" d="M225.026,99.009c0,0-1.354-8.052-3.224-8.487c-1.864-0.428-18.51,4.076-19.223,5.461
			c-0.702,1.387,1.179,10.889,1.902,11.149L225.026,99.009z"/>
	</g>
</g>
<path fill="#EBB15B" d="M223.589,214.667l65.614-20.119l38.407-49.958l-7.539-12.588l-44.537,43.72c0,0-65.998,12.224-66.14,12.336
	L223.589,214.667z"/>
<polygon fill="#969696" points="306.123,55.116 305.306,15.497 320.762,15.497 322.823,20.777 311.617,21.196 312.362,55.116 
	327.09,55.116 327.61,55.396 340.353,55.396 340.353,108.311 335.127,108.311 334.256,60.119 306.31,60.341 306.161,56.857 
	306.161,56.857 306.161,56.819 306.096,55.116 "/>
<g>
	<path fill="#EA7A24" d="M156.616,380.913l20.04-82.374l0.263-0.965c4.776,10.17,18.724,39.827,29.06,60.893l-15.681,37.015
		l-26.872,30.354l-39.833-3.833L156.616,380.913z"/>
	<polygon fill="#303030" points="123.593,422.002 163.426,425.835 136.987,463.189 155.322,473.036 158.886,490.171 94.857,473.036 
			"/>
	<polygon fill="#FECD87" points="246.415,248.741 246.223,250.868 246.403,248.746 	"/>
	<polygon fill="#FECD87" points="241.497,272.122 236.414,294.898 246.223,250.868 	"/>
	<path fill="#FECD87" d="M218.929,417.764c-0.181-20.588-0.411-37.618-0.921-36.812C218.589,380.02,218.803,394.687,218.929,417.764
		z"/>
	<path fill="#303030" d="M247.906,231.078l-31.779,8.644l-16.24-58.985l42.449-5.938c0,0,8.855,12.531,13.098,26.436
		L247.906,231.078z"/>
	<path fill="#303030" d="M212.256,154.055c7.353,3.322,17.945,8.101,25.874,11.648l-0.033,0.052l0.033,0.047l-38.243,2.651
		L212.256,154.055z"/>
	<path fill="#F8941D" d="M175.236,293.966l16.153-53.356l-6.355-54.854l14.853-17.304l38.243-2.651l4.206,8.997l-42.449,5.938
		l16.24,58.985l31.779-8.644l-1.502,17.668l-0.181,2.122l-9.809,44.03l19.152,64.533l-4.102,65.68l0.182-3.109h-32.689
		c0,1.338,0,2.709,0.011,4.058h-0.011c-0.011-2.873-0.017-5.626-0.028-8.296c-0.126-23.077-0.34-37.744-0.921-36.812
		c-0.417,0.685-5.494-9.185-12.029-22.485c-10.335-21.065-24.284-50.723-29.06-60.893
		C175.861,295.299,175.236,293.966,175.236,293.966z"/>
	<path fill="#303030" d="M251.646,422.002l-0.182,3.109l-2.527,40.589l23.302,10.188l7.172,15.154l-60.404-4.759
		c0,0,0.065-24.316,0-49.565c-0.017-3.563-0.028-7.128-0.039-10.658c-0.011-1.349-0.011-2.72-0.011-4.058H251.646z"/>
</g>
<g>
	<path fill="#EA7A24" d="M314.09,21.77c-0.083-6.892,5.434-12.55,12.314-12.635l0,0l65.882-0.831l0.313,24.952l-65.877,0.825l0,0
		C319.836,34.169,314.172,28.65,314.09,21.77z"/>
	<path fill="#F8941D" d="M379.961,20.944c0.093,6.886,5.746,12.399,12.638,12.312c6.892-0.085,12.402-5.743,12.32-12.629
		c-0.083-6.887-5.741-12.408-12.633-12.323C385.399,8.394,379.878,14.052,379.961,20.944z"/>
</g>
<path fill="#FECD87" d="M211.812,192.73l11.98,67.582l57.269,43.019l13.406-5.943l-50.317-48.351c0,0-2.253-41.714-3.224-54.429
	L211.812,192.73z"/>
<g>
	<path fill="#878787" d="M270.166,357.205l5.198-0.559c-0.022-0.209-2.057-20.413,8.026-31.637
		c4.463-4.979,10.785-7.495,18.763-7.495s14.283,2.517,18.751,7.495c10.095,11.224,8.055,31.428,8.033,31.637l5.191,0.559
		c0.104-0.921,2.325-22.698-9.31-35.671c-5.516-6.13-13.137-9.244-22.666-9.244s-17.161,3.114-22.661,9.244
		C267.847,334.507,270.078,356.284,270.166,357.205z"/>
</g>
<g>
	<path fill="#303030" d="M272.766,405.34c0,0,10.225,8.383,29.388,8.383c19.151,0,29.383-8.383,29.383-8.383v-54.121h-58.771V405.34
		z"/>
</g>
<polygon fill="#FECD87" points="294.467,297.388 317.385,305.919 310.312,333.728 279.959,314.253 279.603,302.24 "/>
<rect x="332.518" y="90.492" fill="#F8941D" width="15.676" height="66.924"/>
<polygon fill="#EBB15B" points="320.071,133.557 327.331,116.719 353.342,108.311 353.342,141.093 338.395,148.281 323.762,150.099 
	"/>
<path fill="#303030" d="M272.766,351.219c0,2.324,13.158,4.205,29.388,4.205c16.224,0,29.383-1.881,29.383-4.205
	c0-2.325-13.159-4.206-29.383-4.206C285.924,347.013,272.766,348.894,272.766,351.219z"/>
<path fill="#878787" d="M275.183,352.995c0,2.324,12.073,4.21,26.971,4.21c14.886,0,26.959-1.886,26.959-4.21
	c0-2.319-12.073-4.2-26.959-4.2C287.256,348.795,275.183,350.676,275.183,352.995z"/>
</svg>
