<?xml version="1.0" encoding="utf-8"?>
<!-- Generator: Adobe Illustrator 16.0.0, SVG Export Plug-In . SVG Version: 6.00 Build 0)  -->
<!DOCTYPE svg PUBLIC "-//W3C//DTD SVG 1.1//EN" "http://www.w3.org/Graphics/SVG/1.1/DTD/svg11.dtd">
<svg version="1.1" id="Layer_1" xmlns="http://www.w3.org/2000/svg" xmlns:xlink="http://www.w3.org/1999/xlink" x="0px" y="0px"
	 width="500px" height="500px" viewBox="0 0 500 500" enable-background="new 0 0 500 500" xml:space="preserve">
<g>
	<path fill="#EA7A24" d="M460.686,435.939l-17.979-12.022c0,0-7.666-29.396-8.523-34.071c-1.607,1.848-12.324,6.971-26.31,13.175
		c-31.209,13.816-78.723,32.919-78.723,32.919l-13.193-151.168l61.644-0.103l-8.294,97.969l35.413-12.354l51.09-17.81
		L460.686,435.939z"/>
	<path fill="#EBB15B" d="M330.71,181.791l-74.886,10.554l-64.628-45.291l1.655-16.091l67.836,36.211
		c0,0,71.575-18.616,71.769-18.564L330.71,181.791z"/>
	<polygon fill="#EBB15B" points="192.852,130.964 177.743,117.546 152.823,117.546 157.897,154.213 181.439,154.213 
		194.144,150.483 	"/>
	<g>
		<path fill="#FECD87" d="M332.456,116.867l-12.704-14.837l1.854-1.519l6.784-5.564l1.221-1.003l-0.037-3.573l-0.211-29.656
			l-0.091-14.142l-0.024-3.132l-14.039,2.021l-17.091,2.462l-35.159,5.068v15.348l4.071,9.158l0.133,0.305l-7.001,18.244
			l10.874,6.679l7.37,21.376h14.378l4.549-3.739l6.071,9.639C312.309,126.007,324.192,120.619,332.456,116.867z"/>
		<path fill="#5D3A22" d="M329.574,90.371l-1.195,4.582l-6.772,5.54c0,0-9.847-10.674-11.532-12.505l6.898-7.711l-1.752-8.301
			l-8.771-3.274l-3.504,5.353c-7.322-8.056-13.369-18.758-12.275-18.075l7.461-8.047l31.117-4.479L329.574,90.371z"/>
		<path opacity="0.4" fill="#878787" d="M329.272,46.572c-4.181-0.417-8.94-0.81-14.063-1.112l-17.091,2.462l-35.159,5.068v15.348
			l4.071,9.158c13.261-3.018,42.808-10.083,62.333-16.782L329.272,46.572z"/>
		<g>
			<path fill="#EA7A24" d="M258.604,59.005c0,0-10.373,1.462-12.657,4.374c-1.854,2.362-7.781,12.78-1.794,12.424
				c5.975-0.362,98.604-19.069,95.577-23.271c-3.021-4.214-1.419-8.231-10.747-6.063L258.604,59.005z"/>
			<path fill="#F8941D" d="M333.393,48.058c0,0-12.088,9.038-37.002,13.297c-21.833,3.733-40.651,3.585-40.651,3.585
				c-1.341-6.05-1.902-11.53-1.794-16.48c0.019-1.393,0.109-2.73,0.229-4.044c2.205-22.778,19.247-32.942,36.791-33.991
				c17.579-1.051,33.202,9.403,39.515,24.859c0.097,0.211,0.188,0.438,0.266,0.665C332.221,39.737,333.133,43.796,333.393,48.058z"
				/>
			<path fill="#EA7A24" d="M330.746,35.949c-0.054-0.042-0.12-0.079-0.192-0.127c-0.616-0.401-1.559-0.988-2.694-1.758
				c-0.574-0.387-1.203-0.825-1.915-1.275c-0.72-0.405-1.475-0.888-2.309-1.371c-0.803-0.496-1.673-1.018-2.591-1.574
				c-0.949-0.492-1.922-1.021-2.973-1.556c-0.501-0.278-1.033-0.559-1.559-0.852c-0.531-0.275-1.1-0.493-1.674-0.758
				c-1.136-0.489-2.271-1.09-3.504-1.546c-1.22-0.45-2.488-0.909-3.77-1.384c-1.329-0.338-2.646-0.731-4.005-1.105
				c-1.378-0.208-2.767-0.535-4.181-0.725c-0.701-0.066-1.413-0.124-2.139-0.178l-1.075-0.115l-1.081,0.012
				c-0.719,0.012-1.438,0.012-2.157,0.018c-0.73,0.037-1.438,0.139-2.169,0.208c-1.449,0.066-2.869,0.471-4.307,0.719
				c-0.695,0.178-1.396,0.405-2.091,0.601l-1.057,0.308l-1.027,0.399c-0.671,0.281-1.354,0.511-2.029,0.804
				c-0.665,0.314-1.317,0.634-1.976,0.948c-2.58,1.344-5.063,2.863-7.286,4.619c-1.159,0.803-2.175,1.776-3.256,2.619
				c-1.009,0.939-2.03,1.809-2.954,2.764c-1.897,1.822-3.546,3.722-5.093,5.464c-1.492,1.788-2.863,3.443-3.999,4.99
				c-0.635,0.836-1.215,1.643-1.74,2.362c0.019-1.393,0.109-2.73,0.229-4.044c0.815-1.61,1.788-3.353,2.937-5.189
				c1.316-2.03,2.803-4.235,4.609-6.379c0.852-1.112,1.879-2.139,2.852-3.25c1.069-1.045,2.126-2.136,3.316-3.139
				c2.308-2.078,4.983-3.933,7.89-5.552c2.863-1.658,6.096-2.797,9.382-3.7c1.674-0.302,3.335-0.731,5.032-0.81
				c0.846-0.06,1.703-0.166,2.543-0.178c0.834,0.012,1.686,0.04,2.52,0.061l1.251,0.036l1.231,0.148
				c0.81,0.115,1.632,0.227,2.441,0.338c1.589,0.293,3.135,0.731,4.657,1.105c1.475,0.526,2.924,1.033,4.325,1.562
				c1.342,0.643,2.652,1.269,3.934,1.882c1.25,0.646,2.386,1.398,3.527,2.072c0.556,0.351,1.118,0.677,1.644,1.039
				c0.508,0.369,1.009,0.731,1.498,1.094c0.973,0.725,1.909,1.419,2.803,2.084c0.816,0.725,1.602,1.417,2.332,2.075
				c0.731,0.646,1.42,1.241,2.036,1.818c0.61,0.598,1.136,1.178,1.619,1.67c0.81,0.833,1.45,1.556,1.927,2.081
				C330.577,35.496,330.668,35.722,330.746,35.949z"/>
			<path fill="#EA7A24" d="M283.668,63.608c0,0-2.984-8.718-1.377-10.155c1.612-1.429,20.431-5.948,21.868-4.954
				c1.45,0.991,4.688,11.418,4.114,12.067L283.668,63.608z"/>
		</g>
	</g>
	<polygon fill="#FECD87" points="294.119,223.702 294.33,226.106 294.119,223.71 	"/>
	<polygon fill="#FECD87" points="299.629,250.086 305.325,275.776 294.33,226.106 	"/>
	<path fill="#FECD87" d="M253.795,368.773c0.175-23.234,0.459-42.433,1.021-41.539C254.163,326.178,253.921,342.736,253.795,368.773
		z"/>
	<path fill="#303030" d="M292.434,203.769l35.661,9.756l9.956-57.896l-39.371-15.356c0,0-9.938,14.136-14.68,29.831L292.434,203.769
		z"/>
	<path fill="#303030" d="M332.456,116.867c-8.264,3.752-20.147,9.141-29.052,13.134l0.036,0.066l-0.036,0.061l42.91,2.987
		L332.456,116.867z"/>
	<path fill="#F8941D" d="M378.278,282.699l-22.425-68.171l7.123-61.889l-16.662-19.525l-42.91-2.987l-4.725,10.146l39.371,15.356
		l-9.956,57.896l-35.661-9.756l1.686,19.941l0.211,2.396l10.995,49.67l-92.641,27.179l4.597,74.107l-0.211-3.492h36.676
		c0,1.498,0,3.033,0,4.562l0,0c0.012-3.244,0.024-6.35,0.049-9.358c0.126-26.037,0.368-32.453,1.021-31.384
		c0.465,0.768,106.149-16.619,106.149-16.619L378.278,282.699z"/>
	<g>
		<polygon fill="#F8941D" points="130.894,120.039 136.621,131.794 154.224,133.145 151.216,106.929 		"/>
		<polygon fill="#303030" points="179.621,94.394 179.621,167.407 169.816,174.708 158.495,174.708 145.67,165.779 145.67,133.417 
			145.67,121.658 100.21,121.658 89.656,111.521 89.656,96.113 104.735,86.38 169.544,86.38 		"/>
		<polygon fill="#303030" points="70.035,100.701 39.968,100.701 37.092,105.035 72.542,105.035 		"/>
		<polygon fill="#F8941D" points="89.656,111.521 70.035,111.521 70.035,95.844 89.656,96.113 		"/>
		<rect x="158.495" y="174.708" fill="#303030" width="10.941" height="17.637"/>
		<g>
			<path fill="#303030" d="M252.199,488.618c-93.299,0.006-148.841-12.167-160.815-36.15c-5.473-10.977-1.661-23.572,11.345-37.443
				c50.595-53.959,58.297-223.504,58.364-225.21l5.757,0.242c-0.296,7.053-7.877,173.401-59.928,228.908
				c-11.182,11.925-14.674,22.34-10.391,30.931c17.52,35.099,153.548,42.433,363.84,19.634l0.616,5.715
				C378.526,484.189,308.479,488.618,252.199,488.618z"/>
		</g>
	</g>
	<path fill="#FECD87" d="M317.244,191.514l-74.886,10.551l-64.628-45.294l1.643-16.081l67.842,36.198
		c0,0,44.463-11.901,58.109-15.233L317.244,191.514z"/>
	<path fill="#303030" d="M217.07,373.57l0.211,3.492l2.864,41.297l-26.146,11.49l-8.041,17.084l67.769-5.352
		c0,0-0.066-27.427,0-55.917c0.019-4.023,0.013-3.553,0.019-7.533c0-1.528,0-3.063,0-4.562H217.07z"/>
	<path fill="#303030" d="M460.686,435.939l-17.979-12.022c0,0-7.666-29.396-8.523-34.071c-1.607,1.848-12.324,6.971-26.31,13.175
		l-3.153-32.736l51.09-17.81L460.686,435.939z"/>
	<polygon fill="#FECD87" points="179.374,140.69 162.972,124.995 138.058,124.995 143.126,161.656 166.669,161.656 179.374,157.922 
			"/>
</g>
</svg>
