<?xml version="1.0" encoding="utf-8"?>
<!-- Generator: Adobe Illustrator 16.0.0, SVG Export Plug-In . SVG Version: 6.00 Build 0)  -->
<!DOCTYPE svg PUBLIC "-//W3C//DTD SVG 1.1//EN" "http://www.w3.org/Graphics/SVG/1.1/DTD/svg11.dtd">
<svg version="1.1" id="Layer_1" xmlns="http://www.w3.org/2000/svg" xmlns:xlink="http://www.w3.org/1999/xlink" x="0px" y="0px"
	 width="500px" height="500px" viewBox="0 0 500 500" enable-background="new 0 0 500 500" xml:space="preserve">
<g>
	<g>
		<polygon fill="#FDBA5C" points="265.669,125.482 248.531,130.17 231.59,125.482 236.397,94.353 260.861,94.353 		"/>
		<g>
			<polygon fill="#5D3A22" points="221.764,51.41 224.551,61.97 272.364,61.97 276.439,51.41 			"/>
			<polygon fill="#FECD87" points="275.313,58.138 275.313,75.485 272.152,75.485 272.152,84.824 258.448,107.107 238.629,107.107 
				224.915,84.824 224.915,75.485 221.764,75.485 221.764,58.138 224.915,58.138 224.915,43.818 272.152,43.818 272.152,58.138 			
				"/>
			<rect x="224.915" y="50.092" opacity="0.4" fill="#878787" width="47.238" height="8.046"/>
			<polygon opacity="0.4" fill="#878787" points="242.537,85.147 248.551,65.783 254.564,85.147 			"/>
			<g>
				<rect x="217.881" y="32.161" fill="#EA7A24" width="7.776" height="10.581"/>
				<rect x="271.44" y="32.161" fill="#EA7A24" width="7.775" height="10.581"/>
				<path fill="#F8941D" d="M277.029,43.128c0.021-0.378,0.056-0.745,0.056-1.113c0-15.764-12.779-28.544-28.534-28.544
					c-15.759,0-28.54,12.78-28.54,28.544c0,0.369,0.036,0.735,0.056,1.113H277.029z"/>
				<polygon fill="#EA7A24" points="253.803,41.599 242.744,41.599 238.533,8.997 258.014,8.997 				"/>
				<path fill="#EA7A24" d="M279.367,47.673c0,2.732-2.034,4.946-4.56,4.946h-52.362c-2.53,0-4.565-2.214-4.565-4.946l0,0
					c0-2.719,0-4.931,0-4.931h61.335C279.216,42.742,279.367,44.954,279.367,47.673L279.367,47.673z"/>
			</g>
		</g>
		<polygon fill="#FECD87" points="317.88,161.631 346.368,212.751 319.748,251.033 308.392,238.761 319.839,203.513 
			297.884,174.219 		"/>
		<polygon fill="#FECD87" points="179.369,161.631 151.663,212.751 184.822,247.741 198.577,238.761 178.188,203.513 
			199.365,174.219 		"/>
		<path fill="#303030" d="M329.226,171.427l-27.297,18.228l-3.171-8.998h-99.156l-3.176,8.998l-27.221-15.537l18.895-40.413
			l16.698-8.42l12.755-6.446l15.981-5.968c0,0,4.756,14.292,15.279,14.292c10.519,0,14.901-14.292,14.901-14.292l17.047,5.968
			l12.749,6.446l16.749,8.42L329.226,171.427z"/>
		<polygon fill="#F8941D" points="284.377,224.402 293.531,146.752 293.491,146.752 293.511,146.743 293.511,125.285 
			280.762,118.839 280.762,146.752 217.553,146.752 217.553,118.839 204.798,125.285 204.798,146.743 204.808,146.752 
			213.962,224.402 197.037,387.103 233.862,387.103 249.177,278.938 269.612,387.103 306.119,387.103 		"/>
		<rect x="224.238" y="156.98" fill="#EA7A24" width="48.772" height="34.278"/>
		<polygon fill="#303030" points="306.447,387.103 306.271,426.412 315.905,442.954 299.142,460.672 279.004,448.842 
			277.358,435.98 276.298,427.583 269.612,387.103 		"/>
		<polygon opacity="0.4" fill="#878787" points="279.004,448.842 276.596,429.967 306.271,426.412 315.905,442.954 299.142,460.672 
					"/>
		<polygon fill="#303030" points="197.037,387.103 197.219,426.412 187.574,442.954 204.349,460.672 224.476,448.842 
			226.122,435.98 227.187,427.583 233.862,387.103 		"/>
		<polygon opacity="0.4" fill="#878787" points="224.476,448.842 226.879,429.967 197.219,426.412 187.574,442.954 204.349,460.672 
					"/>
	</g>
	<g>
		<g>
			<rect x="226.758" y="237.008" fill="#636464" width="51.276" height="120.635"/>
			<rect x="237.407" y="243.252" opacity="0.3" fill="#878787" width="31.917" height="19.221"/>
			<rect x="239.341" y="357.664" fill="#878787" width="26.121" height="63.38"/>
			<rect x="248.051" y="421.024" fill="#636464" width="9.185" height="46.298"/>
			<rect x="244.173" y="467.302" fill="#636464" width="16.451" height="24.202"/>
			<rect x="244.173" y="484.768" opacity="0.3" fill="#878787" width="16.451" height="6.736"/>
			<rect x="278.034" y="247.256" fill="#878787" width="12.573" height="18.373"/>
			<rect x="290.607" y="247.256" fill="#636464" width="44.98" height="9.187"/>
			<rect x="214.185" y="247.256" fill="#878787" width="12.573" height="18.373"/>
			<rect x="169.205" y="247.256" fill="#636464" width="44.98" height="9.187"/>
			<rect x="239.341" y="357.664" opacity="0.3" fill="#878787" width="26.121" height="6.469"/>
		</g>
		<g>
			<rect x="233.534" y="269.507" fill="#878787" width="4.363" height="82.704"/>
			<rect x="244.658" y="269.507" fill="#878787" width="4.353" height="82.704"/>
			<rect x="255.787" y="269.507" fill="#878787" width="4.348" height="82.704"/>
			<rect x="266.911" y="269.507" fill="#878787" width="4.353" height="82.704"/>
		</g>
	</g>
	<polygon fill="#FECD87" points="198.577,238.761 210.721,243.252 207.232,262.473 187.574,262.473 184.363,247.256 	"/>
	<polygon fill="#FECD87" points="308.392,238.761 296.253,243.252 299.742,262.473 319.399,262.473 322.611,247.256 	"/>
</g>
</svg>
