<?xml version="1.0" encoding="utf-8"?>
<!-- Generator: Adobe Illustrator 16.0.0, SVG Export Plug-In . SVG Version: 6.00 Build 0)  -->
<!DOCTYPE svg PUBLIC "-//W3C//DTD SVG 1.1//EN" "http://www.w3.org/Graphics/SVG/1.1/DTD/svg11.dtd">
<svg version="1.1" id="Layer_1" xmlns="http://www.w3.org/2000/svg" xmlns:xlink="http://www.w3.org/1999/xlink" x="0px" y="0px"
	 width="500px" height="500px" viewBox="0 0 500 500" enable-background="new 0 0 500 500" xml:space="preserve">
<g>
	<g>
		<g>
			<polygon fill="#FDBA5C" points="262.688,130.806 244.037,135.912 225.588,130.806 230.826,96.919 257.455,96.919 			"/>
		</g>
		<g>
			<g>
				<polygon fill="#5D3A22" points="214.894,50.176 217.928,61.675 269.976,61.675 274.417,50.176 				"/>
			</g>
			<g>
				<polygon fill="#FECD87" points="273.186,57.503 273.186,76.384 269.745,76.384 269.745,86.547 254.827,110.809 233.25,110.809 
					218.333,86.547 218.333,76.384 214.894,76.384 214.894,57.503 218.333,57.503 218.333,41.909 269.745,41.909 269.745,57.503 
									"/>
			</g>
			<g opacity="0.4">
				<rect x="218.333" y="48.741" fill="#878787" width="51.413" height="8.762"/>
			</g>
			<g opacity="0.4">
				<polygon fill="#878787" points="237.504,86.899 244.051,65.825 250.598,86.899 				"/>
			</g>
			<g>
				<g>
					<rect x="210.665" y="29.223" fill="#EA7A24" width="8.47" height="11.516"/>
				</g>
				<g>
					<rect x="268.97" y="29.223" fill="#EA7A24" width="8.471" height="11.516"/>
				</g>
				<g>
					<path fill="#F8941D" d="M275.061,41.162c0.017-0.413,0.061-0.813,0.061-1.215c0-17.161-13.918-31.067-31.07-31.067
						c-17.152,0-31.062,13.906-31.062,31.067c0,0.401,0.039,0.802,0.061,1.215H275.061z"/>
				</g>
				<g>
					<polygon fill="#EA7A24" points="249.771,39.501 237.73,39.501 233.146,4.01 254.352,4.01 					"/>
				</g>
				<g>
					<path fill="#EA7A24" d="M277.605,46.114c0,2.968-2.221,5.376-4.969,5.376h-56.998c-2.749,0-4.975-2.408-4.975-5.376l0,0
						c0-2.968,0-5.375,0-5.375h66.776C277.44,40.738,277.605,43.146,277.605,46.114L277.605,46.114z"/>
				</g>
			</g>
		</g>
		<g>
			<polygon fill="#FECD87" points="319.522,170.156 351.063,226.458 321.655,215.751 297.756,183.859 			"/>
		</g>
		<g>
			<polygon fill="#FECD87" points="168.753,170.156 146.057,220.874 189.662,254.123 167.467,215.751 190.52,183.859 			"/>
		</g>
		<g>
			<path fill="#303030" d="M331.879,180.825l-29.715,19.843l-3.452-9.795H190.77l-3.449,9.795l-29.635-16.918l20.571-43.99
				l18.172-9.168l13.879-7.014l17.405-6.491c0,0,5.175,15.555,16.63,15.555c11.458,0,16.223-15.555,16.223-15.555l18.557,6.491
				l13.879,7.014l18.222,9.168L331.879,180.825z"/>
		</g>
		<g>
			<polygon fill="#F8941D" points="283.058,238.49 293.018,153.963 292.984,153.963 293.001,153.952 293.001,130.592 
				279.122,123.578 279.122,153.963 210.307,153.963 210.307,123.578 196.428,130.592 196.428,153.952 196.442,153.963 
				206.399,238.49 187.977,415.603 228.07,415.603 244.744,297.854 266.991,415.603 306.727,415.603 			"/>
		</g>
		<g>
			<rect x="217.596" y="165.094" fill="#EA7A24" width="53.084" height="37.317"/>
		</g>
		<g>
			<polygon fill="#303030" points="307.078,415.603 306.886,458.394 317.379,476.4 299.125,495.688 277.21,482.81 275.418,468.805 
				274.258,459.658 266.991,415.603 			"/>
		</g>
		<g opacity="0.4">
			<polygon fill="#878787" points="277.21,482.81 274.588,462.264 306.886,458.394 317.379,476.4 299.125,495.688 			"/>
		</g>
		<g>
			<polygon fill="#303030" points="187.977,415.603 188.172,458.394 177.685,476.4 195.937,495.688 217.852,482.81 219.641,468.805 
				220.803,459.658 228.07,415.603 			"/>
		</g>
		<g opacity="0.4">
			<polygon fill="#878787" points="217.852,482.81 220.468,462.264 188.172,458.394 177.685,476.4 195.937,495.688 			"/>
		</g>
	</g>
	<g>
		<g>
			<polygon fill="#FFFFFF" points="247.289,329.245 152.906,311.266 152.906,170.393 247.289,188.372 			"/>
			<path fill="#878787" d="M249.908,332.405l-99.624-18.974v-146.2l99.624,18.975V332.405z M155.522,309.095l89.15,16.979v-135.53
				l-89.15-16.985V309.095z"/>
		</g>
		<g>
			<polygon fill="#FFFFFF" points="247.412,329.245 341.795,311.266 341.795,170.393 247.412,188.372 			"/>
			<path fill="#878787" d="M244.793,332.405V186.207l99.618-18.975v146.2L244.793,332.405z M250.031,190.543v135.53l89.142-16.979
				V173.559L250.031,190.543z"/>
		</g>
	</g>
	<g>
		<polygon fill="#FECD87" points="146.057,220.874 158.216,213.755 171.985,229.965 158.411,246.51 143.386,238.699 		"/>
	</g>
	<g>
		<polygon fill="#FECD87" points="351.063,226.458 337.903,221.423 326.971,239.661 343.059,253.76 356.613,243.613 		"/>
	</g>
</g>
</svg>
