<?xml version="1.0" encoding="utf-8"?>
<!-- Generator: Adobe Illustrator 16.0.0, SVG Export Plug-In . SVG Version: 6.00 Build 0)  -->
<!DOCTYPE svg PUBLIC "-//W3C//DTD SVG 1.1//EN" "http://www.w3.org/Graphics/SVG/1.1/DTD/svg11.dtd">
<svg version="1.1" id="Layer_1" xmlns="http://www.w3.org/2000/svg" xmlns:xlink="http://www.w3.org/1999/xlink" x="0px" y="0px"
	 width="500px" height="500px" viewBox="0 0 500 500" enable-background="new 0 0 500 500" xml:space="preserve">
<g>
	<path fill="#FECD87" d="M196.755,124.211l13.681-15.987l-1.998-1.631l-7.31-5.997l-1.31-1.068l0.026-3.857l0.245-31.92
		l0.086-15.232l0.026-3.371l15.117,2.18l18.398,2.646l37.861,5.455v16.522l-4.38,9.864l-0.151,0.327l7.535,19.648l-11.717,7.191
		l-7.932,23.009h-15.474l-4.896-4.019l-6.536,10.373C218.447,134.045,205.646,128.233,196.755,124.211z"/>
	<path fill="#5D3A22" d="M199.844,95.671l1.297,4.939l7.297,5.97c0,0,10.585-11.498,12.411-13.466l-7.422-8.299l1.879-8.938
		l9.447-3.53l3.764,5.759c7.893-8.68,14.389-20.191,13.218-19.453l5.61-37.239l-27.514-3.152l-19.628,26.899L199.844,95.671z"/>
</g>
<g>
	<polygon fill="#FECD87" points="238.023,239.213 237.805,241.81 238.023,239.232 	"/>
	<path fill="#303030" d="M239.829,217.758l-38.371,10.502l-10.737-62.326l42.386-16.536c0,0,10.698,15.216,15.825,32.119
		L239.829,217.758z"/>
	<path fill="#303030" d="M196.755,124.211c8.892,4.022,21.692,9.834,31.272,14.134l-0.04,0.073l0.04,0.057l-46.197,3.215
		L196.755,124.211z"/>
	<polygon fill="#F8941D" points="239.829,217.758 238.023,239.232 237.805,241.81 229.773,278.04 156.903,278.04 171.569,229.346 
		163.896,162.72 181.83,141.689 228.027,138.474 233.107,149.399 190.722,165.935 201.458,228.261 	"/>
	<g>
		<path fill="#EA7A24" d="M54.507,487.542l19.681-13.179c0,0,8.395-45.362,9.328-50.483c1.76,2.024,13.496,7.635,28.811,14.436
			c34.176,15.137,86.214,36.055,86.214,36.055l14.442-165.548l-67.505-0.119l9.083,107.291l-38.78-8.031L66.699,393.68
			L54.507,487.542z"/>
		<path fill="#FECD87" d="M227.286,287.004c-0.886,3.982-1.773,7.965-2.659,11.961c0.813-3.679,1.634-7.356,2.454-11.035
			L227.286,287.004z"/>
		<path fill="#FECD87" d="M281.063,400.818c-0.198-25.443-0.509-46.481-1.124-45.495
			C280.647,354.165,280.925,372.299,281.063,400.818z"/>
		<path fill="#F8941D" d="M235.191,251.253l-7.906,47.712l98.797,29.77l-5.041,81.147l0.238-3.824h-40.177c0,1.647,0,3.334,0,5.002
			c-0.007-3.56-0.013-6.953-0.04-10.241c-0.139-28.52-0.416-35.539-1.124-34.375c-0.503,0.834-116.243-18.199-116.243-18.199
			l-18.96-41.698l22.037-61.3L235.191,251.253z"/>
		<path fill="#303030" d="M321.28,406.058l-0.238,3.824l-3.136,45.224l28.632,12.597l8.806,18.709l-74.214-5.875
			c0,0,0.079-30.035,0-61.228c-0.026-4.412-0.013-3.89-0.026-8.249c0-1.668,0-3.354,0-5.002H321.28z"/>
		<path fill="#303030" d="M54.507,487.542l30.637-15.672c0,0,10.936-35.235,11.868-40.355c1.76,2.024,0,0,15.315,6.801l3.454-30.353
			L66.699,393.68L54.507,487.542z"/>
	</g>
</g>
<rect x="401.521" y="95.87" fill="#303030" width="42.796" height="7.485"/>
<path fill="#FECD87" d="M212.414,197.872l82,11.554l70.773-49.601l-1.806-17.604l-74.286,39.641c0,0-48.698-13.04-63.643-16.681
	L212.414,197.872z"/>
<polygon fill="#878787" points="408.639,91.745 394.978,199.284 376.554,198.792 388.521,90.944 "/>
<polygon fill="#878787" points="225.969,63.549 225.969,91.725 227.987,124.184 255.217,145.113 267.826,135.285 288.817,47.04 
	272.106,19.996 239.842,11.928 "/>
<polygon fill="#303030" points="282.182,74.842 257.373,64.356 250.884,87.203 276.492,95.87 "/>
<polygon fill="#878787" points="225.956,63.565 199.844,51.747 200.572,57.655 225.956,70.264 "/>
<polygon opacity="0.4" fill="#878787" points="225.969,63.549 225.969,91.725 227.987,124.184 255.217,145.113 244.585,112.809 
	247.344,70.294 272.106,19.996 239.842,11.928 "/>
<polygon fill="#F8941D" points="315.889,161.658 327.704,198.792 363.382,161.093 377.294,165.181 403.075,165.181 408.639,125.028 
	381.343,125.028 363.382,142.222 "/>
<polygon fill="#F8941D" points="443.701,88.583 427.149,26.733 415.334,32.244 "/>
<polygon fill="#EA7A24" points="436.537,87.809 400.185,61.005 394.124,67.704 "/>
<polygon fill="#F8941D" points="433.752,112.809 412.079,149.399 422.922,152.992 "/>
<polygon fill="#EA7A24" points="439.699,109.184 436.537,180.341 427.057,177.797 "/>
</svg>
