<?xml version="1.0" encoding="utf-8"?>
<!-- Generator: Adobe Illustrator 16.0.0, SVG Export Plug-In . SVG Version: 6.00 Build 0)  -->
<!DOCTYPE svg PUBLIC "-//W3C//DTD SVG 1.1//EN" "http://www.w3.org/Graphics/SVG/1.1/DTD/svg11.dtd">
<svg version="1.1" id="Layer_1" xmlns="http://www.w3.org/2000/svg" xmlns:xlink="http://www.w3.org/1999/xlink" x="0px" y="0px"
	 width="500px" height="500px" viewBox="0 0 500 500" enable-background="new 0 0 500 500" xml:space="preserve">
<g>
	<path fill="#EBB15B" d="M283.891,194.223c2.314,0.984-64.527,11.758-64.527,11.758l-18.701-33.125h-14.555l19.921,51.386h74.744
		L283.891,194.223z"/>
	<rect x="-0.326" y="133.4" fill="#969696" width="500.648" height="52.164"/>
	<polygon opacity="0.4" fill="#878787" enable-background="new    " points="-0.326,185.564 500.322,185.564 500.322,133.4 	"/>
	<path fill="#EBB15B" d="M197.141,144.148l-21.133,1.789l-3.329-18.691l26.847-0.348
		C198.514,130.652,197.141,144.148,197.141,144.148z"/>
	<g>
		<path fill="#FECD87" d="M264.103,189.829l-5.164-8.192l-3.868,3.168h-12.21l-6.263-18.163l-9.25-5.667l5.957-15.513l-0.119-0.25
			l-3.463-7.798v-13.024l29.888-4.314l14.515-2.095l11.933-1.716l0.023,2.665l0.066,12.013l0.188,25.203l0.025,3.033l-1.032,0.85
			l-5.766,4.729l-1.578,1.291l10.786,12.608C281.759,181.842,271.661,186.43,264.103,189.829z"/>
		<path fill="#5D3A22" d="M286.061,116.275l-26.447,3.81l-6.338,6.839c-0.928-0.586,4.208,8.503,10.429,15.357l2.977-4.552
			l7.453,2.785l1.487,7.046l-5.863,6.559c1.439,1.562,9.8,10.629,9.8,10.629l5.761-4.713l1.016-3.894L286.061,116.275z"/>
		<path opacity="0.4" fill="#878787" enable-background="new    " d="M286.08,118.929c-3.557-0.356-7.601-0.684-11.957-0.948
			l-14.514,2.095l-29.888,4.314v13.024l3.462,7.798c11.273-2.566,36.377-8.565,52.963-14.269L286.08,118.929z"/>
		<g>
			<path fill="#EA7A24" d="M285.824,118.842c7.93-1.841,6.565,1.571,9.138,5.138c2.572,3.583-76.126,19.474-81.214,19.785
				c-5.086,0.305-0.047-8.55,1.524-10.546c1.948-2.478,10.768-3.727,10.768-3.727L285.824,118.842z"/>
			<path fill="#F8941D" d="M287.329,109.897c-0.066-0.192-0.15-0.373-0.228-0.56c-5.363-13.133-18.64-22.02-33.584-21.128
				c-14.898,0.897-29.385,9.536-31.251,28.89c-0.104,1.109-0.187,2.245-0.197,3.437c-0.083,4.206,0.389,8.862,1.524,14
				c0,0,15.988,0.13,34.535-3.048c21.172-3.624,31.442-11.292,31.442-11.292C289.351,116.575,288.575,113.112,287.329,109.897z"/>
			<path fill="#EA7A24" d="M287.103,109.338c-0.405-0.446-0.948-1.063-1.636-1.763c-0.418-0.425-0.86-0.918-1.371-1.426
				c-0.525-0.482-1.117-0.996-1.735-1.545c-0.622-0.555-1.288-1.146-1.994-1.757c-0.749-0.565-1.542-1.161-2.371-1.779
				c-0.408-0.3-0.84-0.616-1.268-0.927c-0.45-0.312-0.922-0.581-1.395-0.887c-0.975-0.565-1.941-1.203-3.002-1.752
				c-1.089-0.523-2.208-1.053-3.347-1.603c-1.188-0.456-2.421-0.88-3.671-1.332c-1.294-0.31-2.609-0.673-3.963-0.928
				c-0.682-0.104-1.377-0.192-2.072-0.291l-1.052-0.13l-1.063-0.031c-0.703-0.021-1.419-0.042-2.131-0.051
				c-0.714,0.01-1.439,0.104-2.163,0.155c-1.437,0.067-2.856,0.425-4.277,0.69c-2.791,0.762-5.535,1.732-7.971,3.142
				c-2.463,1.369-4.74,2.951-6.698,4.719c-1.018,0.851-1.91,1.778-2.812,2.665c-0.839,0.944-1.706,1.81-2.437,2.759
				c-1.534,1.826-2.789,3.691-3.91,5.423c-0.974,1.561-1.814,3.048-2.499,4.412c-0.103,1.109-0.185,2.244-0.196,3.437
				c0.445-0.617,0.944-1.296,1.483-2.017c0.954-1.311,2.125-2.711,3.391-4.226c1.306-1.494,2.716-3.101,4.334-4.656
				c0.784-0.803,1.66-1.544,2.51-2.349c0.913-0.715,1.783-1.54,2.759-2.229c1.898-1.483,4.002-2.769,6.195-3.915
				c0.561-0.27,1.115-0.545,1.675-0.804c0.573-0.248,1.161-0.452,1.741-0.689l0.855-0.337l0.9-0.255
				c0.596-0.176,1.189-0.368,1.783-0.524c1.215-0.213,2.421-0.556,3.657-0.612c0.617-0.052,1.224-0.141,1.841-0.176
				c0.615,0,1.226-0.005,1.836-0.005l0.917-0.01l0.918,0.093c0.604,0.046,1.214,0.094,1.81,0.15
				c1.205,0.155,2.386,0.441,3.557,0.623c1.153,0.322,2.273,0.644,3.4,0.944c1.092,0.394,2.163,0.788,3.197,1.166
				c1.048,0.39,2.015,0.897,2.989,1.317c0.479,0.218,0.964,0.409,1.418,0.644c0.453,0.243,0.896,0.492,1.329,0.725
				c0.879,0.451,1.719,0.897,2.52,1.317c0.781,0.477,1.514,0.918,2.203,1.338c0.7,0.415,1.346,0.818,1.963,1.161
				c0.599,0.388,1.13,0.756,1.623,1.088c0.965,0.663,1.765,1.14,2.297,1.488c0.051,0.041,0.111,0.083,0.157,0.108
				C287.261,109.705,287.179,109.525,287.103,109.338z"/>
			<path fill="#EA7A24" d="M268.229,130.823c0.489-0.555-2.267-9.415-3.492-10.255c-1.227-0.845-17.213,2.992-18.58,4.205
				c-1.365,1.219,1.173,8.627,1.173,8.627L268.229,130.823z"/>
		</g>
	</g>
	<path fill="#FECD87" d="M243.943,339.681c-1.254,0.39-10.975,18.069-10.975,18.069l-19.972,14.273l4.364-31.129l20.973-12.21
		L243.943,339.681z"/>
	<g>
		<path fill="#EA7A24" d="M373.3,435.536l-37.976,3.67l-25.626-29.101l-14.949-35.479c9.856-20.195,23.152-48.623,27.7-58.376
			l0.262,0.919l19.098,78.974L373.3,435.536z"/>
		<polygon fill="#303030" points="400.686,484.466 339.646,500.891 343.041,484.466 360.53,475.028 335.324,439.207 373.3,435.537 
					"/>
		<polygon fill="#FECD87" points="256.213,269.438 256.381,271.47 256.203,269.433 		"/>
		<polygon fill="#FECD87" points="256.381,271.47 265.729,313.68 260.889,291.852 		"/>
		<path fill="#FECD87" d="M283.282,396.185c-0.484-0.771-0.713,15.551-0.876,35.292
			C282.517,409.349,282.728,395.287,283.282,396.185z"/>
		<path fill="#303030" d="M247.6,223.896c4.045-13.34,12.487-25.348,12.487-25.348l33.45,13.055l-8.467,49.183l-30.291-8.291
			L247.6,223.896z"/>
		<path fill="#303030" d="M300.551,192.465l-36.449-2.547l0.022-0.046l-0.022-0.046c7.56-3.396,17.657-7.984,24.669-11.168
			L300.551,192.465z"/>
		<path fill="#F8941D" d="M322.451,316.252c-4.549,9.752-17.844,38.18-27.7,58.375c-6.228,12.755-11.073,22.212-11.467,21.558
			c-0.555-0.896-0.766,13.164-0.876,35.292c-0.011,2.553-0.021,5.196-0.031,7.948h-0.005c0.005-1.295,0.005-2.606,0.005-3.887
			h-31.166l0.18,2.98l-3.911-62.969l18.253-61.869l-9.349-42.21l-0.169-2.032l-1.434-16.944l30.291,8.291l8.467-49.183
			l-33.45-13.055l4.014-8.628l36.449,2.547l14.164,16.585l-6.059,52.583l15.404,51.158
			C324.062,312.793,323.465,314.068,322.451,316.252z"/>
		<path fill="#303030" d="M251.209,435.538h31.166c0,1.28,0,2.591-0.006,3.887c-0.01,3.386-0.025,6.799-0.044,10.225
			c-0.052,24.198,0,47.515,0,47.515l-57.581,4.551l6.834-14.522l22.219-9.763l-2.408-38.912L251.209,435.538L251.209,435.538z"/>
	</g>
	<path fill="#FECD87" d="M255.566,220.219c-0.051,0.16,10.479,62.109,10.479,62.109l-35.599,54.787l13.496,2.565l43.062-51.405
		l-3.471-64.157L255.566,220.219z"/>
</g>
</svg>
