<?xml version="1.0" encoding="utf-8"?>
<!-- Generator: Adobe Illustrator 16.0.0, SVG Export Plug-In . SVG Version: 6.00 Build 0)  -->
<!DOCTYPE svg PUBLIC "-//W3C//DTD SVG 1.1 Tiny//EN" "http://www.w3.org/Graphics/SVG/1.1/DTD/svg11-tiny.dtd">
<svg version="1.1" baseProfile="tiny" id="Layer_1" xmlns="http://www.w3.org/2000/svg" xmlns:xlink="http://www.w3.org/1999/xlink"
	 x="0px" y="0px" width="500px" height="432px" viewBox="0 0 500 432" xml:space="preserve">
<g>
	<path fill="#303030" d="M202.67,288.607l-5.62,0.503L23.677,303.952c3.709-4.78,7.393-9.209,11.098-13.28
		c57.873-64.267,112.775-44.29,143.204-23.49c7.78,5.323,13.964,10.702,18.186,14.726
		C200.386,285.919,202.67,288.607,202.67,288.607z"/>
	<image width="723" height="154" xlink:href="E9D71FD5.png"  transform="matrix(0.24 0 0 0.24 23.6768 267.1816)">
	</image>
	<g>
		<polygon fill="#969696" points="212.953,282.499 204.779,320.16 77.161,378.096 3.535,306.236 132.921,291.584 		"/>
	</g>
	<path fill="#303030" d="M39.889,390.122c7.014,0,12.726,5.708,12.726,12.732c0,7.021-5.712,12.73-12.726,12.73
		c-7.021,0-12.731-5.709-12.731-12.73C27.158,395.83,32.869,390.122,39.889,390.122L39.889,390.122z M39.889,372.941
		c-16.518,0-29.909,13.392-29.909,29.912c0,16.522,13.39,29.92,29.909,29.92c16.517,0,29.904-13.398,29.904-29.92
		C69.793,386.333,56.406,372.941,39.889,372.941L39.889,372.941z"/>
	<path fill="#646565" d="M256.154,228.428c-1.941-0.613-4.006,0.476-4.608,2.417l-27.349,87.589L38.418,399.48
		c-1.864,0.812-2.72,2.981-1.907,4.846c0.605,1.386,1.957,2.209,3.378,2.209c0.488,0,0.99-0.098,1.47-0.305l116.569-50.853
		l42.222,30.839c0.643,0.465,1.406,0.704,2.174,0.704c0.514,0,1.034-0.103,1.523-0.331c1.208-0.551,2.027-1.709,2.144-3.03
		l4.403-51.063l18.287-7.985c0.981-0.421,1.723-1.255,2.04-2.277l27.845-89.195C259.176,231.102,258.1,229.033,256.154,228.428z
		 M199.216,376.414l-33.47-24.453l36.969-16.121L199.216,376.414z"/>
	<image width="566" height="399" xlink:href="E9D71FD7.png"  transform="matrix(0.24 0 0 0.24 77.1611 282.499)">
	</image>
</g>
<g>
	<path fill="#EBB15B" d="M282.907,212.214l-25.321-0.288l-20.559,25.546c0,0,41.833-13.19,45.02-12.399L282.907,212.214z"/>
	<path fill="#EBB15B" d="M374.431,142.765l-31.235,59.318l-66.055,22.989l-10.709-9.523l61.188-30.012
		c0,0,23.726-61.123,23.854-61.229L374.431,142.765z"/>
	<g>
		<polygon fill="#FECE88" points="379.519,75.347 378.442,76.236 372.425,81.165 346.876,102.083 334.14,102.083 327.61,83.131 
			317.972,77.214 324.176,61.031 324.057,60.764 320.447,52.642 320.447,39.04 351.618,34.546 366.761,32.358 379.201,30.568 
			379.226,33.343 379.301,45.887 379.493,72.181 		"/>
		<path fill="#5E3B23" d="M379.493,72.169l-1.063,4.068l-6.007,4.917c0,0-8.721-9.471-10.225-11.094l6.129-6.835l-1.559-7.365
			l-7.775-2.894l-3.105,4.744c-6.485-7.147-11.851-16.629-10.882-16.026l6.615-7.134l27.582-3.969L379.493,72.169z"/>
		<image width="246" height="119" xlink:href="E9D71FD2.png"  transform="matrix(0.24 0 0 0.24 320.4473 32.3584)">
		</image>
		<g>
			<path fill="#E97A26" d="M316.596,44.366c0,0-9.199,1.301-11.228,3.881c-1.638,2.091-6.893,11.327-1.59,11.007
				c5.302-0.314,87.392-16.9,84.713-20.63c-2.679-3.727-1.26-7.294-9.531-5.365L316.596,44.366z"/>
			<path fill="#F89521" d="M382.869,34.663c0,0-10.71,8.011-32.793,11.793c-19.346,3.311-36.024,3.179-36.024,3.179
				c-1.185-5.366-1.675-10.223-1.59-14.611c0.017-1.234,0.09-2.428,0.202-3.591c1.958-20.191,17.059-29.209,32.601-30.134
				c15.586-0.931,29.435,8.342,35.023,22.042c0.085,0.191,0.17,0.386,0.245,0.59C381.834,27.284,382.645,30.886,382.869,34.663z"/>
			<path fill="#E97A26" d="M380.533,23.928c-0.053-0.037-0.116-0.074-0.171-0.115c-0.555-0.356-1.382-0.872-2.391-1.558
				c-0.521-0.339-1.071-0.731-1.695-1.124c-0.641-0.363-1.313-0.792-2.043-1.222c-0.721-0.441-1.487-0.902-2.304-1.396
				c-0.838-0.44-1.702-0.901-2.632-1.382c-0.447-0.243-0.905-0.493-1.386-0.754c-0.47-0.241-0.971-0.438-1.484-0.669
				c-1.012-0.432-2.016-0.968-3.103-1.369c-1.079-0.4-2.203-0.808-3.34-1.224c-1.176-0.31-2.349-0.646-3.555-0.981
				c-1.221-0.189-2.44-0.474-3.702-0.645c-0.616-0.056-1.264-0.107-1.887-0.16l-0.961-0.099l-0.96,0.01
				c-0.634,0.002-1.268,0.007-1.908,0.016c-0.641,0.029-1.279,0.125-1.921,0.181c-1.291,0.059-2.55,0.419-3.818,0.638
				c-0.618,0.157-1.237,0.359-1.856,0.533l-0.938,0.272l-0.903,0.356c-0.603,0.251-1.216,0.462-1.809,0.712
				c-0.587,0.283-1.169,0.563-1.748,0.843c-2.284,1.196-4.48,2.537-6.46,4.086c-1.019,0.718-1.927,1.575-2.888,2.327
				c-0.885,0.832-1.796,1.606-2.612,2.452c-1.69,1.617-3.151,3.3-4.512,4.844c-1.323,1.587-2.551,3.051-3.547,4.423
				c-0.561,0.748-1.072,1.457-1.542,2.097c0.018-1.234,0.09-2.428,0.202-3.592c0.715-1.42,1.59-2.966,2.603-4.598
				c1.175-1.801,2.477-3.756,4.086-5.659c0.758-0.987,1.67-1.894,2.534-2.879c0.944-0.922,1.872-1.896,2.939-2.779
				c2.036-1.841,4.411-3.49,6.976-4.922c2.551-1.473,5.41-2.482,8.321-3.284c1.487-0.269,2.96-0.643,4.465-0.714
				c0.751-0.053,1.509-0.15,2.256-0.163c0.735,0.013,1.483,0.034,2.229,0.057l1.104,0.032l1.093,0.133
				c0.728,0.104,1.45,0.2,2.165,0.301c1.403,0.258,2.779,0.645,4.129,0.971c1.304,0.473,2.594,0.917,3.831,1.387
				c1.185,0.575,2.346,1.128,3.486,1.673c1.109,0.573,2.117,1.243,3.127,1.833c0.502,0.315,0.992,0.598,1.462,0.92
				c0.448,0.329,0.896,0.651,1.323,0.974c0.867,0.643,1.69,1.268,2.474,1.85c0.735,0.641,1.432,1.256,2.081,1.838
				c0.646,0.578,1.259,1.102,1.803,1.614c0.545,0.531,1.003,1.042,1.434,1.483c0.716,0.737,1.287,1.376,1.704,1.84
				C380.373,23.531,380.458,23.726,380.533,23.928z"/>
			<path fill="#E97A26" d="M338.801,48.45c0,0-2.635-7.731-1.217-9.001c1.43-1.271,18.104-5.271,19.385-4.393
				c1.278,0.875,4.148,10.124,3.643,10.697L338.801,48.45z"/>
		</g>
	</g>
	<g>
		<polygon fill="#E97A26" points="496.465,358.824 462.568,412.297 455.772,388.115 465.171,363.583 437.418,346.178 
			397.068,320.894 374.441,267.523 410.956,217.32 417.443,240.193 435.771,304.988 458.791,325.41 461.64,327.942 		"/>
		<polygon fill="#303030" points="496.465,358.824 462.568,412.297 455.751,388.115 465.171,363.583 437.418,346.178 
			458.791,325.41 461.64,327.942 		"/>
	</g>
	<path fill="#FECE88" d="M418.842,235.621c0,0-41.345,89.012-42.527,87.017c-0.545-0.865-0.783,18.609-0.949,41.062
		c0,4.81-0.025,9.775-0.056,14.723c-0.052,25.252,0,49.57,0,49.57l-60.054,4.749l7.126-15.146l23.17-10.187l-2.507-40.604
		l-0.192-3.105l-3.893-62.596l19.041-64.559l-5.05-22.771l-4.699-21.26l-0.191-2.135l-1.483-17.668l-3.19-37.466l3.437-7.377
		c0,0,0-0.027,0.032-0.027l5.26-11.425l4.187-8.996l0.026-0.053l-0.026-0.057l-12.914-20.501l25.881-6.074l12.77,14.936
		l12.29,14.395l5.645,6.619l9.125,10.697l-6.32,54.864L418.842,235.621z"/>
	<path fill="#303030" d="M399.97,116.688l-2.134,20.993l-10.829,54.025l-18.556,19.367l-9.423-9.587L348.06,190.38l-8.967-47.517
		c4.209-13.91,13.021-26.445,13.021-26.445l4.188-8.996l0.027-0.053l-0.027-0.057c7.89-3.537,18.419-8.317,25.737-11.64
		l12.289,14.395L399.97,116.688z"/>
	<path fill="#FECE88" d="M277.995,226.94l-25.313-0.283l-20.564,25.541c0,0,41.833-13.189,45.023-12.395L277.995,226.94z"/>
	<path fill="#F89521" d="M418.842,235.621c0,0-41.345,89.012-42.527,87.017c-0.645-1.051-0.843,17.288-0.954,45.118l-32.313-0.95
		l-4.085-65.702l19.041-64.559l-9.749-44.03l-1.676-19.803l31.598,8.646l8.833-51.327l-34.894-13.614l4.188-8.996l38.024,2.646
		l14.771,17.317l-6.32,54.865L418.842,235.621z"/>
	<path fill="#303030" d="M375.31,378.422c-0.052,25.252,0,49.57,0,49.57l-60.054,4.749l7.126-15.146l23.17-10.187l-2.507-40.604
		l-0.193-3.105h32.513C375.364,368.508,375.338,373.475,375.31,378.422z"/>
	<path fill="#FECE88" d="M374.431,157.495l-31.235,59.319l-66.055,22.989l-10.709-9.524l61.188-30.011
		c0,0,23.726-61.118,23.854-61.228L374.431,157.495z"/>
</g>
</svg>
