<?xml version="1.0" encoding="utf-8"?>
<!-- Generator: Adobe Illustrator 16.0.0, SVG Export Plug-In . SVG Version: 6.00 Build 0)  -->
<!DOCTYPE svg PUBLIC "-//W3C//DTD SVG 1.1//EN" "http://www.w3.org/Graphics/SVG/1.1/DTD/svg11.dtd">
<svg version="1.1" id="Layer_1" xmlns="http://www.w3.org/2000/svg" xmlns:xlink="http://www.w3.org/1999/xlink" x="0px" y="0px"
	 width="500px" height="432px" viewBox="0 0 500 432" enable-background="new 0 0 500 432" xml:space="preserve">
<g>
	<path fill="#303030" d="M196.248,292.304l-5.409,0.475l-166.796,14.28c3.571-4.601,7.113-8.854,10.679-12.772
		c55.676-61.81,108.496-42.596,137.771-22.591c7.487,5.118,13.435,10.287,17.493,14.16
		C194.051,289.711,196.248,292.304,196.248,292.304z"/>
	<path opacity="0.4" fill="#878787" d="M190.839,292.778l-166.796,14.28c3.571-4.601,7.113-8.854,10.679-12.772
		c36.911-6.091,106.771-17.588,137.771-22.591c7.487,5.118,13.435,10.287,17.493,14.16L190.839,292.778z"/>
	<g>
		<polygon fill="#969696" points="206.141,286.424 198.28,322.646 75.502,378.367 4.667,309.256 129.147,295.162 		"/>
	</g>
	<path fill="#303030" d="M39.644,389.93c6.748,0,12.244,5.496,12.244,12.245c0,6.757-5.496,12.245-12.244,12.245
		c-6.753,0-12.249-5.488-12.249-12.245C27.395,395.426,32.891,389.93,39.644,389.93L39.644,389.93z M39.644,373.407
		c-15.893,0-28.777,12.884-28.777,28.768c0,15.894,12.885,28.775,28.777,28.775c15.887,0,28.768-12.882,28.768-28.775
		C68.411,386.291,55.531,373.407,39.644,373.407L39.644,373.407z"/>
	<path fill="#636363" d="M247.708,234.422c-1.869-0.588-3.86,0.456-4.436,2.327l-26.314,84.236l-178.73,77.949
		c-1.797,0.775-2.618,2.867-1.838,4.658c0.586,1.332,1.889,2.128,3.254,2.128c0.473,0,0.954-0.097,1.417-0.295l112.144-48.912
		l40.621,29.665c0.616,0.444,1.355,0.678,2.095,0.678c0.492,0,0.995-0.101,1.461-0.32c1.166-0.529,1.951-1.646,2.063-2.919
		l4.233-49.108l17.597-7.678c0.944-0.409,1.657-1.205,1.966-2.188l26.785-85.788C250.611,236.994,249.575,235.005,247.708,234.422z
		 M192.922,376.75l-32.195-23.516l35.562-15.508L192.922,376.75z"/>
	<polygon opacity="0.4" fill="#878787" points="206.141,286.424 198.28,322.646 75.502,378.367 129.147,295.162 	"/>
</g>
<g>
	<path fill="#EBB05B" d="M273.441,218.827l-24.359-0.278l-19.777,24.568c0,0,40.24-12.685,43.31-11.926L273.441,218.827z"/>
	<path fill="#EBB05B" d="M361.494,152.032l-30.052,57.05l-63.549,22.109l-10.304-9.158l58.869-28.864
		c0,0,22.824-58.784,22.948-58.887L361.494,152.032z"/>
	<g>
		<polygon fill="#FDCC86" points="366.389,87.193 365.352,88.047 359.563,92.789 334.985,112.907 322.729,112.907 316.449,94.68 
			307.176,88.989 313.145,73.425 313.031,73.168 309.557,65.356 309.557,52.273 339.546,47.952 354.113,45.848 366.08,44.126 
			366.105,46.795 366.178,58.859 366.362,84.147 		"/>
		<path fill="#5C3921" d="M366.362,84.137l-1.021,3.913l-5.778,4.728c0,0-8.39-9.108-9.837-10.667l5.896-6.574l-1.498-7.084
			l-7.481-2.784l-2.987,4.562c-6.238-6.874-11.402-15.993-10.468-15.413l6.363-6.861l26.535-3.818L366.362,84.137z"/>
		<path opacity="0.4" fill="#878787" d="M366.105,46.795c-3.566-0.352-7.63-0.685-11.992-0.947l-14.567,2.104l-29.989,4.321v13.083
			l3.475,7.812c11.31-2.576,36.5-8.595,53.146-14.309L366.105,46.795z"/>
		<g>
			<path fill="#EB7900" d="M305.852,57.397c0,0-8.851,1.252-10.802,3.733c-1.575,2.012-6.63,10.895-1.528,10.586
				c5.101-0.303,84.075-16.254,81.499-19.841c-2.576-3.584-1.212-7.015-9.17-5.16L305.852,57.397z"/>
			<path fill="#FD9400" d="M369.612,48.065c0,0-10.306,7.705-31.551,11.34c-18.61,3.184-34.657,3.058-34.657,3.058
				c-1.14-5.162-1.61-9.832-1.527-14.053c0.013-1.187,0.086-2.335,0.193-3.454c1.883-19.419,16.41-28.092,31.364-28.982
				c14.994-0.896,28.314,8.022,33.693,21.198c0.082,0.185,0.164,0.372,0.236,0.567C368.615,40.968,369.396,44.432,369.612,48.065z"
				/>
			<path fill="#EB7900" d="M367.364,37.74c-0.052-0.036-0.113-0.072-0.164-0.11c-0.534-0.343-1.33-0.839-2.299-1.498
				c-0.504-0.325-1.032-0.704-1.633-1.081c-0.616-0.349-1.263-0.762-1.966-1.175c-0.691-0.423-1.43-0.867-2.217-1.341
				c-0.806-0.424-1.637-0.867-2.529-1.329c-0.431-0.234-0.872-0.475-1.335-0.726c-0.45-0.231-0.933-0.421-1.427-0.645
				c-0.974-0.416-1.938-0.931-2.984-1.316c-1.037-0.385-2.12-0.777-3.213-1.177c-1.129-0.298-2.259-0.622-3.418-0.945
				c-1.175-0.182-2.351-0.456-3.562-0.621c-0.596-0.054-1.217-0.103-1.816-0.154l-0.924-0.095l-0.924,0.011
				c-0.61,0.002-1.222,0.007-1.836,0.015c-0.617,0.028-1.233,0.121-1.849,0.174c-1.242,0.057-2.453,0.403-3.675,0.613
				c-0.595,0.151-1.189,0.346-1.784,0.513l-0.904,0.262l-0.867,0.344c-0.58,0.241-1.17,0.443-1.739,0.685
				c-0.564,0.272-1.123,0.542-1.684,0.811c-2.196,1.149-4.31,2.44-6.214,3.931c-0.979,0.69-1.853,1.513-2.776,2.237
				c-0.853,0.8-1.729,1.545-2.515,2.358c-1.627,1.554-3.031,3.173-4.341,4.659c-1.272,1.527-2.452,2.936-3.413,4.254
				c-0.538,0.719-1.03,1.4-1.48,2.016c0.013-1.187,0.086-2.335,0.193-3.454c0.688-1.368,1.529-2.853,2.505-4.423
				c1.128-1.731,2.38-3.612,3.93-5.441c0.729-0.949,1.605-1.822,2.438-2.769c0.907-0.888,1.801-1.825,2.826-2.673
				c1.961-1.771,4.244-3.356,6.712-4.733c2.453-1.417,5.204-2.389,8.006-3.159c1.433-0.259,2.848-0.618,4.295-0.688
				c0.724-0.051,1.452-0.143,2.171-0.156c0.707,0.013,1.426,0.033,2.146,0.054l1.061,0.031l1.053,0.127
				c0.698,0.101,1.396,0.193,2.084,0.29c1.35,0.249,2.673,0.622,3.971,0.935c1.254,0.454,2.494,0.882,3.685,1.334
				c1.14,0.551,2.258,1.084,3.357,1.608c1.066,0.552,2.036,1.195,3.006,1.763c0.481,0.302,0.956,0.575,1.406,0.886
				c0.432,0.315,0.862,0.625,1.273,0.936c0.835,0.619,1.625,1.219,2.38,1.778c0.709,0.616,1.375,1.209,2.001,1.769
				c0.622,0.554,1.212,1.06,1.735,1.552c0.522,0.51,0.964,1.001,1.38,1.426c0.688,0.708,1.237,1.324,1.638,1.77
				C367.21,37.358,367.292,37.545,367.364,37.74z"/>
			<path fill="#EB7900" d="M327.214,61.325c0,0-2.533-7.435-1.17-8.657c1.375-1.224,17.417-5.07,18.648-4.225
				c1.231,0.841,3.993,9.736,3.504,10.288L327.214,61.325z"/>
		</g>
	</g>
	<g>
		<polygon fill="#EB7900" points="478.897,359.828 446.287,411.257 439.749,388.004 448.791,364.409 422.092,347.672 
			383.271,323.352 361.505,272.021 396.633,223.738 402.874,245.738 420.507,308.052 442.654,327.699 445.395,330.127 		"/>
		<polygon fill="#303030" points="478.897,359.828 446.287,411.257 439.729,388.004 448.791,364.409 422.092,347.672 
			442.654,327.699 445.395,330.127 		"/>
	</g>
	<path fill="#FDCC86" d="M404.219,241.34c0,0-39.775,85.611-40.914,83.69c-0.523-0.836-0.755,17.899-0.913,39.489
		c0,4.625-0.026,9.404-0.052,14.16c-0.052,24.29,0,47.677,0,47.677l-57.775,4.57l6.855-14.572l22.292-9.795l-2.412-39.056
		l-0.185-2.984l-3.747-60.199l18.32-62.091l-4.86-21.902l-4.521-20.446l-0.185-2.052l-1.428-16.993l-3.066-36.034l3.304-7.094
		c0,0,0-0.026,0.03-0.026l5.06-10.989l4.028-8.652l0.025-0.051l-0.025-0.054l-12.422-19.718l24.897-5.842l12.284,14.366
		l11.823,13.845l5.429,6.366l8.78,10.288l-6.081,52.768L404.219,241.34z"/>
	<path fill="#303030" d="M386.063,126.952l-2.053,20.189l-10.417,51.96l-17.852,18.627l-9.067-9.221l-10.551-10.679l-8.626-45.701
		c4.049-13.378,12.525-25.435,12.525-25.435l4.028-8.652l0.025-0.051l-0.025-0.054c7.591-3.402,17.721-8,24.76-11.194l11.823,13.845
		L386.063,126.952z"/>
	<path fill="#FDCC86" d="M268.716,232.993l-24.355-0.276l-19.783,24.566c0,0,40.246-12.686,43.315-11.922L268.716,232.993z"/>
	<path fill="#FD9400" d="M404.219,241.34c0,0-39.775,85.611-40.914,83.69c-0.621-1.014-0.81,16.625-0.918,43.389l-31.087-0.915
		l-3.932-63.184l18.32-62.091l-9.381-42.349l-1.612-19.045l30.401,8.316l8.496-49.365l-33.57-13.093l4.028-8.652l36.583,2.545
		l14.209,16.654l-6.081,52.768L404.219,241.34z"/>
	<path fill="#303030" d="M362.34,378.68c-0.052,24.29,0,47.677,0,47.677l-57.775,4.57l6.855-14.572l22.292-9.795l-2.412-39.056
		l-0.185-2.984h31.276C362.392,369.145,362.365,373.924,362.34,378.68z"/>
	<path fill="#FDCC86" d="M361.494,166.201l-30.052,57.049l-63.549,22.111l-10.304-9.158l58.869-28.866
		c0,0,22.824-58.781,22.948-58.887L361.494,166.201z"/>
</g>
</svg>
