<?xml version="1.0" encoding="utf-8"?>
<!-- Generator: Adobe Illustrator 16.0.0, SVG Export Plug-In . SVG Version: 6.00 Build 0)  -->
<!DOCTYPE svg PUBLIC "-//W3C//DTD SVG 1.1//EN" "http://www.w3.org/Graphics/SVG/1.1/DTD/svg11.dtd">
<svg version="1.1" id="Layer_1" xmlns="http://www.w3.org/2000/svg" xmlns:xlink="http://www.w3.org/1999/xlink" x="0px" y="0px"
	 width="500px" height="500px" viewBox="0 0 500 500" enable-background="new 0 0 500 500" xml:space="preserve">
<g>
	<path fill="#FECD87" d="M322.852,106.991l-15.585-15.324l1.596-1.894l5.854-6.89l1.043-1.246l-0.699-3.598l-5.771-29.924
		l-2.727-14.27l-0.623-3.166l-13.875,4.691l-16.895,5.708l-34.79,11.746l2.866,15.477l5.867,8.511l0.191,0.267L245.6,96.847
		l12.312,4.691l11.473,20.206l14.606-2.702l3.935-4.627l7.964,8.593C304.19,117.294,315.174,112.331,322.852,106.991z"/>
	<path fill="#5D3A22" d="M315.06,78.033l-0.356,4.862l-5.854,6.865c0,0-11.987-8.93-14.054-10.462l5.568-9.083l-3.331-8.053
		l-9.521-1.666l-2.556,6.07c-8.956-6.77-17.098-16.443-15.852-15.941l6.063-9.534l30.782-10.398L315.06,78.033z"/>
	<path opacity="0.4" fill="#878787" d="M306.562,33.846c-4.342,0.362-9.248,0.871-14.498,1.525l-16.895,5.708l-34.79,11.746
		l2.866,15.477l5.867,8.511c12.913-5.549,41.604-18.249,60.176-28.698L306.562,33.846z"/>
	<g>
		<path fill="#EA7A24" d="M237.102,59.702c0,0-10.268,3.439-12.061,6.82c-1.43,2.72-5.504,14.371,0.508,12.884
			c6.003-1.5,96.603-37.832,92.745-41.518c-3.871-3.674-2.981-8.041-12.058-4.093L237.102,59.702z"/>
		<path fill="#F8941D" d="M311.017,34.577c0,0-10.589,11.396-35.11,20.39c-21.471,7.888-40.622,11.282-40.622,11.282
			c-2.482-5.867-4.074-11.301-4.907-16.316c-0.238-1.411-0.397-2.791-0.521-4.125c-2.024-23.429,13.389-36.91,30.998-41.27
			c17.683-4.373,35.506,3.254,44.811,17.676c0.14,0.197,0.268,0.413,0.395,0.616C308.271,26.377,309.949,30.325,311.017,34.577z"/>
		<path fill="#EA7A24" d="M306.06,22.831c-0.063-0.032-0.14-0.051-0.21-0.083c-0.712-0.299-1.779-0.699-3.07-1.271
			c-0.667-0.28-1.373-0.61-2.187-0.928c-0.801-0.273-1.671-0.623-2.605-0.954c-0.915-0.35-1.882-0.705-2.918-1.1
			c-1.062-0.324-2.161-0.673-3.305-1.01c-0.578-0.185-1.157-0.381-1.748-0.566c-0.61-0.184-1.214-0.299-1.844-0.458
			c-1.258-0.273-2.517-0.674-3.864-0.896c-1.322-0.229-2.682-0.451-4.08-0.68c-1.418-0.115-2.822-0.242-4.271-0.375
			c-1.443,0.051-2.911-0.025-4.386,0.051c-0.725,0.07-1.469,0.146-2.199,0.222l-1.119,0.096l-1.093,0.216
			c-0.725,0.14-1.462,0.28-2.187,0.419c-0.731,0.178-1.442,0.407-2.174,0.604c-1.455,0.343-2.822,1.017-4.233,1.538
			c-0.674,0.318-1.338,0.68-2.021,1.017l-1.011,0.502l-0.957,0.585c-0.639,0.419-1.297,0.801-1.926,1.214
			c-0.607,0.438-1.214,0.884-1.831,1.335c-2.364,1.843-4.595,3.833-6.541,6.025c-1.014,1.023-1.869,2.206-2.809,3.254
			c-0.849,1.144-1.729,2.218-2.485,3.35c-1.589,2.212-2.914,4.43-4.144,6.496c-1.179,2.084-2.279,4.011-3.134,5.784
			c-0.483,0.966-0.925,1.888-1.332,2.714c-0.238-1.411-0.397-2.791-0.521-4.125c0.521-1.773,1.195-3.725,2.015-5.803
			c0.96-2.307,2.05-4.792,3.48-7.316c0.667-1.284,1.519-2.504,2.311-3.813c0.88-1.259,1.751-2.562,2.774-3.795
			c1.945-2.53,4.325-4.919,6.96-7.093c2.612-2.218,5.679-3.966,8.844-5.504c1.64-0.629,3.268-1.367,4.964-1.767
			c0.853-0.216,1.697-0.483,2.549-0.654c0.858-0.153,1.717-0.28,2.568-0.42l1.271-0.203l1.283-0.07
			c0.858-0.038,1.704-0.083,2.556-0.121c1.665,0.013,3.317,0.146,4.932,0.229c1.59,0.261,3.159,0.496,4.679,0.775
			c1.475,0.394,2.937,0.782,4.36,1.15c1.386,0.426,2.682,0.973,3.973,1.43c0.629,0.261,1.252,0.477,1.862,0.75
			c0.571,0.267,1.169,0.553,1.722,0.82c1.125,0.547,2.199,1.081,3.229,1.583c0.973,0.584,1.9,1.125,2.765,1.652
			c0.864,0.521,1.685,0.985,2.415,1.456c0.725,0.489,1.367,0.973,1.958,1.392c0.966,0.68,1.754,1.29,2.339,1.729
			C305.805,22.411,305.933,22.627,306.06,22.831z"/>
		<path fill="#EA7A24" d="M263.41,59.639c0,0-4.665-8.244-3.299-9.998c1.366-1.748,19.646-9.852,21.293-9.121
			c1.658,0.731,6.896,10.666,6.432,11.422L263.41,59.639z"/>
	</g>
</g>
<path fill="#EBB15B" d="M239.432,261.889l-29.298,3.204l-20.038,39.363l36.443-7.068c0,0,12.185-20.778,13.767-20.581
	L239.432,261.889z"/>
<path fill="#EBB15B" d="M315.65,150.804l-27.452,72.688l-47.893,53.315l-13.767-9.471l41.245-60.713
	c0,0,18.521-73.699,18.668-73.845L315.65,150.804z"/>
<g>
	<path fill="#EA7A24" d="M387.354,369.974l-23.226-95.493l-0.317-1.112c-5.529,11.784-21.699,46.171-33.688,70.591l18.186,42.909
		l31.15,35.188l46.184-4.442L387.354,369.974z"/>
	<polygon fill="#303030" points="425.643,417.613 379.459,422.056 410.108,465.366 388.854,476.775 384.722,496.638 
		458.948,476.775 	"/>
	<polygon fill="#FECD87" points="283.26,216.754 283.482,219.221 283.272,216.761 	"/>
	<polygon fill="#FECD87" points="288.955,243.863 294.847,270.254 283.482,219.221 	"/>
	<path fill="#FECD87" d="M315.123,412.693c0.197-23.861,0.471-43.603,1.062-42.669C315.504,368.938,315.263,385.94,315.123,412.693z
		"/>
	<path fill="#303030" d="M281.524,196.282l36.834,10.017l18.833-68.379l-49.209-6.883c0,0-10.265,14.523-15.185,30.649
		L281.524,196.282z"/>
	<path fill="#303030" d="M322.852,106.991c-8.517,3.852-20.797,9.395-29.994,13.5l0.038,0.063l-0.038,0.044l44.334,3.077
		L322.852,106.991z"/>
	<path fill="#F8941D" d="M365.769,269.18l-18.726-61.851l7.367-63.586l-17.219-20.066l-44.334-3.077l-4.875,10.437l49.209,6.883
		l-18.833,68.379l-36.834-10.017l1.748,20.479l0.21,2.46l11.364,51.033l-22.201,74.817l4.761,76.146l-0.216-3.604h37.895
		c0,1.544,0,3.133-0.007,4.703h0.007c0.013-3.331,0.025-6.527,0.038-9.623c0.14-26.753,0.381-43.756,1.062-42.669
		c0.483,0.789,6.375-10.646,13.938-26.065c11.988-24.42,28.158-58.807,33.688-70.591C365.044,270.724,365.769,269.18,365.769,269.18
		z"/>
	<path fill="#303030" d="M277.19,417.613l0.216,3.604l2.924,47.054l-27.014,11.81l-8.311,17.556l70.016-5.511
		c0,0-0.063-28.183,0-57.452c0.025-4.138,0.044-8.264,0.057-12.356c0.007-1.57,0.007-3.159,0.007-4.703H277.19z"/>
</g>
<g>
	<polygon fill="#636464" points="82.036,326.822 398.375,236.795 394.993,225.164 78.652,315.197 	"/>
</g>
<polygon fill="#FECD87" points="328.648,146.825 382.23,210.589 316.763,250.677 297.848,247.047 341.412,211.848 304.991,168.188 
	"/>
<path fill="#FECD87" d="M309.949,237.38l-25.514,14.759l-5.301,37.641l24.28-17.257c0,0,11.822-21.382,13.348-21.846L309.949,237.38
	z"/>
<path fill="#636464" d="M40.753,330.503c-0.118,0.426-0.057,0.73,0,0.973c1.764,5.81,44.877,21.737,44.877,21.737l64.676-16.888
	l-8.469-30.351h-0.07l-2.542-9.02l-6.541-23.428l-60.917,20.523c0,0-22.167,21.375-29.012,32.155
	C41.605,327.96,40.944,329.416,40.753,330.503z"/>
<path opacity="0.3" fill="#878787" d="M42.756,326.206c31.129-19.38,81.882-27.312,96.469-29.251l-6.541-23.428l-60.917,20.523
	C71.768,294.051,49.601,315.426,42.756,326.206z"/>
</svg>
