<?xml version="1.0" encoding="utf-8"?>
<!-- Generator: Adobe Illustrator 16.0.0, SVG Export Plug-In . SVG Version: 6.00 Build 0)  -->
<!DOCTYPE svg PUBLIC "-//W3C//DTD SVG 1.1//EN" "http://www.w3.org/Graphics/SVG/1.1/DTD/svg11.dtd">
<svg version="1.1" id="Layer_1" xmlns="http://www.w3.org/2000/svg" xmlns:xlink="http://www.w3.org/1999/xlink" x="0px" y="0px"
	 width="325px" height="500px" viewBox="0 0 325 500" enable-background="new 0 0 325 500" xml:space="preserve">
<g>
	<path fill="#FECE88" d="M193.871,128.157l-4.004-19.254l2.389-0.435l8.725-1.566l1.572-0.289l1.715-3.149l14.287-26.186
		l6.834-12.474l1.497-2.776l-13.435-5.085l-16.35-6.196l-33.672-12.76l-7.489,13.481l-0.858,10.064l-0.03,0.32L139.925,74.48
		l6.398,11.19l-3.906,22.396l12.752,7.037l5.862-1.05l2.573,18.082C173.453,132.975,184.729,127.417,193.871,128.157z"/>
	<path fill="#5E3B23" d="M204.271,103.457l-3.303,3.447l-8.719,1.548c0,0-3.512-14.196-4.117-16.639l9.885-3.399l2.5-8.156
		l-6.18-7.165l-5.719,2.991c-2.563-10.674-2.694-23.043-2.065-21.899l10.54-3.422l29.805,11.283L204.271,103.457z"/>
	<path opacity="0.4" fill="#878787" enable-background="new    " d="M225.388,64.804c-3.505-2.422-7.545-5.088-11.937-7.861
		l-16.35-6.196l-33.672-12.76l-7.489,13.481l-0.858,10.064c13.237,3.833,42.886,12.086,63.472,15.745L225.388,64.804z"/>
	<g>
		<path fill="#E97A26" d="M156.652,41.144c0,0-9.925-3.783-13.386-2.35c-2.784,1.168-13.133,7.433-7.645,10.046
			c5.476,2.604,96.757,31.492,96.126,26.315c-0.635-5.182,2.762-7.929-6.573-10.59L156.652,41.144z"/>
		<path fill="#F89521" d="M228.307,68.121c0,0-15.129,2.021-39.307-6.425c-21.184-7.398-37.804-16.729-37.804-16.729
			c1.775-5.978,3.958-11.073,6.455-15.377c0.698-1.212,1.438-2.35,2.183-3.438c13.077-18.949,33.158-19.549,49.214-11.893
			c16.116,7.691,24.864,24.528,22.918,41.212c-0.022,0.229-0.055,0.473-0.092,0.711C231.338,60.226,230.152,64.251,228.307,68.121z"
			/>
		<path fill="#E97A26" d="M231.875,56.182c-0.025-0.064-0.068-0.133-0.102-0.203c-0.355-0.671-0.91-1.628-1.539-2.86
			c-0.33-0.633-0.662-1.317-1.064-2.066c-0.444-0.71-0.887-1.508-1.387-2.338c-0.475-0.831-0.984-1.707-1.521-2.648
			c-0.6-0.898-1.223-1.846-1.878-2.813c-0.317-0.497-0.642-1.01-0.979-1.521c-0.336-0.507-0.723-0.976-1.102-1.483
			c-0.78-0.994-1.49-2.079-2.364-3.083c-0.86-0.992-1.758-2.015-2.669-3.047c-1.012-0.967-1.982-1.942-3-2.94
			c-1.129-0.861-2.195-1.831-3.36-2.691c-0.587-0.398-1.197-0.803-1.796-1.2l-0.91-0.625l-0.961-0.518
			c-0.637-0.339-1.285-0.688-1.921-1.039c-0.667-0.323-1.347-0.584-2.021-0.883c-1.321-0.652-2.781-0.995-4.171-1.48
			c-0.705-0.177-1.441-0.323-2.163-0.485l-1.074-0.258l-1.098-0.147c-0.742-0.081-1.472-0.211-2.208-0.289
			c-0.735-0.041-1.478-0.084-2.22-0.128c-2.945-0.075-5.874,0.041-8.712,0.481c-1.415,0.152-2.801,0.504-4.161,0.721
			c-1.353,0.332-2.694,0.597-3.966,0.979c-2.591,0.681-4.979,1.532-7.192,2.323c-2.195,0.848-4.229,1.613-5.978,2.421
			c-0.973,0.435-1.883,0.852-2.706,1.225c0.698-1.212,1.438-2.349,2.184-3.438c1.499-1.016,3.227-2.07,5.148-3.13
			c2.156-1.143,4.535-2.344,7.186-3.359c1.312-0.557,2.721-0.948,4.136-1.442c1.452-0.404,2.919-0.842,4.466-1.141
			c3.055-0.698,6.341-1.021,9.695-1.028c3.355-0.053,6.773,0.529,10.135,1.339c1.628,0.55,3.316,0.998,4.858,1.756
			c0.784,0.361,1.589,0.688,2.343,1.089c0.738,0.421,1.474,0.857,2.195,1.277l1.094,0.637l1.021,0.75
			c0.669,0.503,1.343,0.994,2.003,1.495c1.26,1.038,2.426,2.173,3.592,3.243c1.048,1.184,2.09,2.334,3.068,3.487
			c0.873,1.225,1.734,2.419,2.582,3.588c0.785,1.182,1.428,2.402,2.121,3.543c0.317,0.594,0.654,1.143,0.935,1.722
			c0.274,0.569,0.548,1.14,0.804,1.695c0.505,1.118,0.99,2.183,1.453,3.202c0.379,1.043,0.736,2.04,1.072,2.969
			c0.324,0.926,0.648,1.797,0.911,2.602c0.249,0.814,0.437,1.579,0.624,2.262c0.305,1.117,0.523,2.067,0.691,2.767
			C231.943,55.699,231.912,55.942,231.875,56.182z"/>
		<path fill="#E97A26" d="M176.621,57.456c0,0,1.609-9.126,3.736-9.601c2.126-0.47,21.021,4.774,21.819,6.35
			c0.793,1.579-1.429,12.333-2.251,12.623L176.621,57.456z"/>
	</g>
</g>
<path fill="#EBB15B" d="M178.191,184.538l-74.63-22.81L62.936,91.329l8.574-14.277l47.602,63.328c0,0,75.059,13.857,75.221,13.985
	L178.191,184.538z"/>
<g>
	<path fill="#E97A26" d="M254.367,373.031l-22.793-93.395l-0.299-1.096c-5.433,11.532-21.303,45.159-33.052,69.043l17.835,41.965
		l30.57,34.416l45.299-4.339L254.367,373.031z"/>
	<polygon fill="#303030" points="291.926,419.627 246.629,423.967 276.691,466.328 255.84,477.493 251.794,496.915 324.611,477.493 
			"/>
	<polygon fill="#FECE88" points="152.238,223.171 152.45,225.583 152.247,223.174 	"/>
	<polygon fill="#FECE88" points="157.825,249.69 163.604,275.501 152.45,225.583 	"/>
	<path fill="#FECE88" d="M183.499,414.814c0.194-23.338,0.468-42.647,1.042-41.733C183.882,372.024,183.637,388.654,183.499,414.814
		z"/>
	<path fill="#303030" d="M150.536,203.144l36.138,9.801l18.472-66.881l-48.271-6.733c0,0-10.075,14.207-14.902,29.975
		L150.536,203.144z"/>
	<path fill="#303030" d="M191.084,115.813c-8.363,3.765-20.404,9.186-29.425,13.205l0.031,0.059l-0.031,0.049l43.487,3.01
		L191.084,115.813z"/>
	<path fill="#F89521" d="M233.183,274.45l-18.371-60.498l7.233-62.198l-16.899-19.62l-43.487-3.01l-4.783,10.204l48.271,6.733
		l-18.472,66.881l-36.138-9.801l1.711,20.031l0.203,2.409l11.153,49.917l-21.783,73.18l4.674,74.471l-0.215-3.524h37.184
		c0,1.505,0,3.07-0.007,4.6h0.007c0.007-3.251,0.019-6.379,0.037-9.412c0.137-26.16,0.381-42.791,1.041-41.733
		c0.475,0.771,6.249-10.413,13.683-25.496c11.748-23.885,27.619-57.511,33.051-69.043
		C232.479,275.955,233.183,274.45,233.183,274.45z"/>
	<path fill="#303030" d="M146.279,419.627l0.215,3.524l2.872,46.022l-26.507,11.553l-8.15,17.177l68.697-5.391
		c0,0-0.063-27.578,0-56.201c0.025-4.047,0.038-8.08,0.051-12.084c0.007-1.53,0.007-3.096,0.007-4.601H146.279z"/>
</g>
<path fill="#FECE88" d="M189.367,175.769l-66.108,41.394l-79.992-15.368l-5.238-15.794l79.192,5.48c0,0,36.879-29.875,48.332-38.74
	L189.367,175.769z"/>
<polygon fill="#FECE88" points="38.029,186.001 1.912,167.342 1.912,212.945 34.902,211.036 45.301,202.187 "/>
<polygon fill="#E97A26" points="28.668,123.973 54.888,24.615 62.936,26.835 42.732,128.334 "/>
<polygon fill="#969696" points="94.641,24.584 77.174,30.863 35.937,19.43 36.176,18.305 39.678,3.497 70.397,9.661 80.5,11.672 "/>
<polygon fill="#EBB15B" points="71.51,80.154 63.254,61.055 39.954,50.19 28.668,86.584 50.675,96.846 64.186,98.907 "/>
<polygon fill="#969696" points="1.912,8.763 13.298,8.763 13.298,3.512 16.763,3.512 16.763,20.17 13.177,19.94 13.177,14.432 
	1.912,14.666 "/>
<polygon opacity="0.4" fill="#878787" enable-background="new    " points="94.641,24.584 77.174,30.863 35.937,19.43 
	36.176,18.305 70.397,9.661 80.5,11.672 "/>
</svg>
