<?xml version="1.0" encoding="utf-8"?>
<!-- Generator: Adobe Illustrator 16.0.0, SVG Export Plug-In . SVG Version: 6.00 Build 0)  -->
<!DOCTYPE svg PUBLIC "-//W3C//DTD SVG 1.1//EN" "http://www.w3.org/Graphics/SVG/1.1/DTD/svg11.dtd">
<svg version="1.1" id="Layer_1" xmlns="http://www.w3.org/2000/svg" xmlns:xlink="http://www.w3.org/1999/xlink" x="0px" y="0px"
	 width="325px" height="500px" viewBox="0 0 325 500" enable-background="new 0 0 325 500" xml:space="preserve">
<g>
	<path fill="#FECE88" d="M175.354,163.516l-0.248-17.217l-5.321,0.996l-11.619-6.325l3.401-20.409l-5.875-10.153l13.641-11.591
		l0.018-0.289l0.719-9.168l6.713-12.324l30.646,11.396l14.879,5.539l12.227,4.542l-1.348,2.533l-6.118,11.401l-12.796,23.93
		l-1.539,2.881l-1.415,0.274l-7.912,1.485l-2.174,0.408l3.765,17.503C196.698,158.308,184.299,164.219,175.354,163.516z"/>
	<path fill="#5E3B23" d="M234.533,98.524l-27.116-10.08l-9.542,3.186c-0.578-1.039-0.381,10.222,2.009,19.922l5.173-2.762
		l5.654,6.486l-2.213,7.439l-8.947,3.164c0.564,2.215,3.844,15.12,3.844,15.12l7.912-1.463l2.965-3.166L234.533,98.524z"/>
	<path opacity="0.4" fill="#878787" enable-background="new    " d="M233.186,101.046c-3.197-2.182-6.881-4.582-10.877-7.075
		l-14.881-5.539l-30.646-11.396l-6.713,12.325l-0.719,9.168c12.038,3.401,39.013,10.722,57.718,13.917L233.186,101.046z"/>
	<g>
		<path fill="#E97A26" d="M232.99,100.831c8.489,2.366,5.427,4.886,6.043,9.596c0.601,4.711-82.432-20.992-87.413-23.33
			c-5.003-2.345,4.352-8.113,6.864-9.191c3.141-1.333,12.163,2.049,12.163,2.049L232.99,100.831z"/>
		<path fill="#F89521" d="M239.021,93.153c0.033-0.218,0.056-0.439,0.074-0.648c1.658-15.191-6.391-30.472-21.066-37.363
			c-14.624-6.868-32.843-6.192-44.593,11.143c-0.667,1.002-1.325,2.038-1.958,3.145c-2.229,3.937-4.178,8.586-5.756,14.036
			c0,0,15.145,8.397,34.416,14.993c21.999,7.531,35.724,5.589,35.724,5.589C237.506,100.513,238.563,96.843,239.021,93.153z"/>
		<path fill="#E97A26" d="M239.098,92.506c-0.153-0.634-0.357-1.497-0.65-2.513c-0.17-0.62-0.352-1.316-0.572-2.054
			c-0.25-0.73-0.543-1.52-0.85-2.363c-0.305-0.85-0.645-1.744-0.99-2.697c-0.43-0.92-0.877-1.89-1.335-2.906
			c-0.243-0.501-0.485-1.022-0.741-1.534c-0.259-0.527-0.576-1.024-0.859-1.562c-0.635-1.033-1.234-2.145-1.953-3.212
			c-0.775-1.058-1.568-2.139-2.365-3.252c-0.896-1.041-1.84-2.083-2.809-3.152c-1.058-0.962-2.133-1.992-3.282-2.928
			c-0.601-0.453-1.206-0.894-1.817-1.347l-0.945-0.673l-0.99-0.577c-0.662-0.379-1.324-0.767-1.998-1.146
			c-0.685-0.359-1.422-0.654-2.139-0.977c-1.398-0.68-2.939-1.079-4.428-1.568c-3.039-0.716-6.146-1.224-9.201-1.155
			c-3.046,0.028-6.023,0.345-8.791,1.001c-1.402,0.281-2.728,0.69-4.047,1.064c-1.272,0.464-2.546,0.829-3.74,1.347
			c-2.399,0.939-4.549,2.048-6.497,3.101c-1.737,0.974-3.294,1.95-4.658,2.883c-0.667,1.002-1.325,2.038-1.958,3.145
			c0.748-0.345,1.572-0.727,2.451-1.134c1.584-0.741,3.43-1.458,5.41-2.238c2.009-0.736,4.166-1.526,6.504-2.165
			c1.159-0.357,2.372-0.603,3.605-0.914c1.233-0.208,2.483-0.538,3.769-0.686c2.569-0.421,5.229-0.544,7.901-0.5
			c0.673,0.039,1.347,0.073,2.015,0.11c0.667,0.062,1.337,0.177,2.009,0.245l0.99,0.128l0.979,0.229
			c0.662,0.138,1.325,0.265,1.971,0.424c1.261,0.433,2.592,0.733,3.791,1.319c0.605,0.266,1.229,0.503,1.84,0.789
			c0.581,0.32,1.17,0.631,1.748,0.932l0.877,0.466l0.826,0.563c0.556,0.359,1.109,0.721,1.646,1.081
			c1.064,0.778,2.038,1.647,3.063,2.431c0.934,0.897,1.828,1.783,2.74,2.654c0.844,0.939,1.658,1.859,2.445,2.756
			c0.803,0.912,1.453,1.893,2.16,2.79c0.357,0.458,0.703,0.892,1.02,1.347c0.306,0.461,0.6,0.923,0.9,1.376
			c0.6,0.881,1.166,1.732,1.715,2.55c0.492,0.852,0.967,1.647,1.396,2.4c0.453,0.755,0.86,1.48,1.273,2.12
			c0.368,0.679,0.686,1.304,0.98,1.874c0.582,1.118,1.086,1.99,1.426,2.598c0.021,0.056,0.063,0.122,0.09,0.178
			C239.057,92.935,239.078,92.714,239.098,92.506z"/>
		<path fill="#E97A26" d="M210.09,103.057c0.746-0.268,2.688-10.077,1.963-11.508c-0.735-1.43-17.919-6.079-19.842-5.637
			c-1.931,0.449-3.329,8.76-3.329,8.76L210.09,103.057z"/>
	</g>
</g>
<path fill="#EBB15B" d="M205.018,186.593c-0.146-0.116-68.272-12.734-68.272-12.734l-45.973-45.13l-7.782,12.994l39.645,51.569
	l67.73,20.768L205.018,186.593z"/>
<polygon fill="#969696" points="105.198,49.364 105.13,51.122 105.13,51.161 105.13,51.161 104.976,54.757 76.129,54.528 
	75.23,104.274 69.835,104.274 69.835,49.653 82.99,49.653 83.527,49.364 98.73,49.364 99.499,14.35 87.931,13.917 90.059,8.467 
	106.013,8.467 105.17,49.364 "/>
<g>
	<path fill="#E97A26" d="M293.587,428.083l-41.118,3.957l-27.738-31.333l-16.188-38.209c10.67-21.745,25.067-52.358,29.998-62.856
		l0.271,0.996l20.686,85.03L293.587,428.083z"/>
	<polygon fill="#303030" points="323.249,480.763 257.154,498.45 260.834,480.763 279.761,470.599 252.469,432.039 293.587,428.082 
			"/>
	<polygon fill="#FECE88" points="166.815,249.238 167.001,251.429 166.803,249.233 	"/>
	<polygon fill="#FECE88" points="167.001,251.429 177.127,296.88 171.88,273.368 	"/>
	<path fill="#FECE88" d="M196.127,385.709c-0.527-0.832-0.764,16.746-0.951,37.998C195.307,399.887,195.527,384.746,196.127,385.709
		z"/>
	<path fill="#303030" d="M157.494,200.195c4.379-14.354,13.52-27.289,13.52-27.289l43.818,6.13l-16.764,60.888l-32.805-8.923
		L157.494,200.195z"/>
	<path fill="#303030" d="M214.832,166.356l-39.477-2.737l0.033-0.048l-0.033-0.053c8.185-3.662,19.118-8.595,26.709-12.024
		L214.832,166.356z"/>
	<path fill="#F89521" d="M238.541,299.64c-4.931,10.499-19.33,41.113-29.998,62.857c-6.746,13.729-11.986,23.917-12.416,23.211
		c-0.6-0.963-0.82,14.177-0.951,37.998c-0.012,2.756-0.018,5.598-0.029,8.563h-0.011c0.011-1.392,0.011-2.808,0.011-4.188h-33.743
		l0.188,3.21l-4.235-67.799l19.77-66.614l-10.126-45.45l-0.187-2.19L165.264,231l32.805,8.923l16.764-60.888l-43.818-6.13
		l4.342-9.287l39.477,2.737l15.332,17.862l-6.561,56.623l16.674,55.077C240.277,295.917,239.633,297.293,238.541,299.64z"/>
	<path fill="#303030" d="M161.403,428.082h33.743c0,1.381,0,2.797-0.011,4.188c-0.012,3.645-0.022,7.325-0.04,11.002
		c-0.067,26.063,0,51.164,0,51.164l-62.353,4.912l7.404-15.643l24.052-10.517l-2.607-41.897L161.403,428.082L161.403,428.082z"/>
</g>
<g>
	<path fill="#E97A26" d="M83.906,27.65L83.906,27.65l-68.001-0.852l0.323-25.756l68.007,0.857l0,0
		c7.103,0.088,12.797,5.929,12.711,13.043C96.861,22.044,91.015,27.741,83.906,27.65z"/>
	<path fill="#F89521" d="M16.228,1.042C9.114,0.954,3.273,6.653,3.188,13.762c-0.084,7.108,5.603,12.949,12.717,13.036
		c7.115,0.09,12.949-5.601,13.046-12.709C29.036,6.975,23.337,1.135,16.228,1.042z"/>
</g>
<path fill="#FECE88" d="M172.47,193.354c-1.003,13.125-3.329,56.185-3.329,56.185l-51.938,49.911l13.838,6.134l59.116-44.406
	l12.365-69.762L172.47,193.354z"/>
<g>
	<path fill="#878787" d="M132.661,324.374c-5.678-6.327-13.556-9.542-23.392-9.542c-9.837,0-17.703,3.215-23.397,9.542
		c-12.01,13.392-9.718,35.871-9.61,36.821l5.358-0.576c-0.022-0.216-2.128-21.071,8.292-32.658
		c4.613-5.138,11.121-7.737,19.357-7.737c8.235,0,14.76,2.599,19.367,7.737c10.409,11.587,8.309,32.441,8.286,32.658l5.365,0.576
		C142.377,360.245,144.68,337.766,132.661,324.374z"/>
</g>
<g>
	<path fill="#303030" d="M139.603,355.017H78.936v55.866c0,0,10.563,8.653,30.331,8.653c19.781,0,30.336-8.653,30.336-8.653V355.017
		z"/>
</g>
<polygon fill="#FECE88" points="132.544,304.458 132.178,316.858 100.845,336.961 93.545,308.256 117.202,299.45 "/>
<rect x="61.743" y="85.881" fill="#F89521" width="16.181" height="69.082"/>
<polygon fill="#EBB15B" points="86.962,147.41 71.857,145.534 56.428,138.113 56.428,104.274 83.278,112.953 90.772,130.334 "/>
<path fill="#303030" d="M109.267,350.675c-16.747,0-30.331,1.941-30.331,4.342c0,2.398,13.583,4.341,30.331,4.341
	c16.754,0,30.336-1.942,30.336-4.341C139.603,352.616,126.021,350.675,109.267,350.675z"/>
<path fill="#878787" d="M109.267,352.515c-15.366,0-27.829,1.941-27.829,4.335c0,2.399,12.463,4.346,27.829,4.346
	c15.379,0,27.84-1.946,27.84-4.346C137.107,354.456,124.646,352.515,109.267,352.515z"/>
</svg>
