<?xml version="1.0" encoding="utf-8"?>
<!-- Generator: Adobe Illustrator 16.0.0, SVG Export Plug-In . SVG Version: 6.00 Build 0)  -->
<!DOCTYPE svg PUBLIC "-//W3C//DTD SVG 1.1//EN" "http://www.w3.org/Graphics/SVG/1.1/DTD/svg11.dtd">
<svg version="1.1" id="Layer_1" xmlns="http://www.w3.org/2000/svg" xmlns:xlink="http://www.w3.org/1999/xlink" x="0px" y="0px"
	 width="500px" height="500px" viewBox="0 0 500 500" enable-background="new 0 0 500 500" xml:space="preserve">
<g>
	<path fill="#EA7A24" d="M441.785,444.56l-18.615-12.447c0,0-7.938-30.437-8.825-35.277c-1.663,1.914-12.76,7.219-27.241,13.642
		c-32.313,14.305-81.509,34.084-81.509,34.084l-13.659-156.518l63.824-0.106l-8.586,101.436l36.665-12.791l52.898-18.44
		L441.785,444.56z"/>
	<path fill="#EBB15B" d="M307.209,181.418l-77.535,10.928l-66.916-46.894l1.714-16.661l70.237,37.492
		c0,0,74.107-19.274,74.309-19.221L307.209,181.418z"/>
	<polygon fill="#EBB15B" points="164.473,128.792 148.83,114.899 123.028,114.899 128.281,152.864 152.656,152.864 165.811,149.002 
			"/>
	<g>
		<path fill="#FECD87" d="M309.018,114.197l-13.154-15.362l1.919-1.573l7.025-5.761l1.265-1.039l-0.039-3.699l-0.218-30.706
			l-0.096-14.642l-0.024-3.243l-14.535,2.092l-17.696,2.549l-36.403,5.248v15.891l4.216,9.482l0.138,0.316l-7.249,18.889
			l11.259,6.916l7.631,22.132h14.887l4.71-3.872l6.286,9.98C288.157,123.66,300.46,118.082,309.018,114.197z"/>
		<path fill="#5D3A22" d="M306.033,86.763l-1.237,4.744l-7.011,5.736c0,0-10.196-11.052-11.94-12.948l7.142-7.984l-1.814-8.594
			l-9.081-3.39l-3.629,5.542c-7.58-8.341-13.841-19.422-12.708-18.714l7.725-8.332l32.218-4.637L306.033,86.763z"/>
		<path opacity="0.4" fill="#878787" enable-background="new    " d="M305.72,41.414c-4.328-0.432-9.256-0.838-14.56-1.151
			l-17.696,2.549l-36.403,5.248V63.95l4.216,9.482c13.729-3.125,44.322-10.44,64.539-17.376L305.72,41.414z"/>
		<g>
			<path fill="#EA7A24" d="M232.552,54.287c0,0-10.74,1.514-13.104,4.529c-1.92,2.446-8.057,13.232-1.858,12.864
				c6.187-0.375,102.094-19.744,98.96-24.094c-3.128-4.364-1.47-8.523-11.128-6.278L232.552,54.287z"/>
			<path fill="#F8941D" d="M309.987,42.953c0,0-12.516,9.358-38.312,13.768c-22.604,3.865-42.089,3.712-42.089,3.712
				c-1.39-6.264-1.97-11.938-1.858-17.063c0.02-1.442,0.113-2.827,0.237-4.188c2.283-23.583,19.929-34.107,38.093-35.194
				c18.201-1.088,34.377,9.736,40.913,25.739c0.102,0.218,0.195,0.453,0.276,0.688C308.773,34.337,309.718,38.54,309.987,42.953z"/>
			<path fill="#EA7A24" d="M307.247,30.416c-0.057-0.043-0.125-0.082-0.198-0.132c-0.64-0.415-1.615-1.023-2.791-1.82
				c-0.594-0.401-1.244-0.854-1.981-1.32c-0.746-0.42-1.527-0.92-2.391-1.42c-0.832-0.513-1.733-1.054-2.684-1.63
				c-0.982-0.509-1.989-1.057-3.078-1.61c-0.52-0.288-1.069-0.579-1.613-0.882c-0.55-0.285-1.14-0.511-1.734-0.785
				c-1.176-0.506-2.351-1.129-3.628-1.601c-1.263-0.466-2.575-0.941-3.903-1.433c-1.375-0.35-2.739-0.757-4.146-1.144
				c-1.428-0.216-2.866-0.554-4.33-0.751c-0.726-0.068-1.463-0.128-2.214-0.184l-1.113-0.119l-1.12,0.013
				c-0.744,0.012-1.488,0.012-2.233,0.018c-0.755,0.039-1.488,0.144-2.245,0.215c-1.501,0.069-2.971,0.488-4.459,0.745
				c-0.721,0.184-1.446,0.419-2.166,0.623l-1.094,0.319l-1.064,0.413c-0.693,0.291-1.401,0.529-2.1,0.832
				c-0.688,0.325-1.364,0.657-2.046,0.982c-2.671,1.391-5.242,2.964-7.545,4.783c-1.199,0.831-2.251,1.838-3.371,2.711
				c-1.044,0.973-2.101,1.874-3.058,2.862c-1.965,1.886-3.672,3.854-5.273,5.657c-1.545,1.851-2.965,3.564-4.14,5.167
				c-0.658,0.866-1.259,1.701-1.802,2.446c0.019-1.442,0.112-2.827,0.236-4.188c0.844-1.667,1.852-3.472,3.041-5.373
				c1.362-2.102,2.902-4.384,4.771-6.604c0.883-1.151,1.947-2.215,2.954-3.365c1.106-1.082,2.2-2.212,3.433-3.25
				c2.389-2.152,5.16-4.072,8.169-5.748c2.965-1.717,6.313-2.896,9.715-3.831c1.732-0.313,3.453-0.757,5.209-0.839
				c0.877-0.062,1.764-0.172,2.633-0.185c0.863,0.013,1.746,0.042,2.61,0.063l1.295,0.038l1.273,0.153
				c0.84,0.119,1.691,0.235,2.528,0.35c1.646,0.304,3.246,0.757,4.822,1.145c1.527,0.544,3.027,1.069,4.478,1.617
				c1.39,0.666,2.747,1.314,4.073,1.949c1.294,0.669,2.471,1.447,3.652,2.145c0.575,0.364,1.156,0.701,1.702,1.076
				c0.526,0.382,1.044,0.757,1.551,1.133c1.008,0.75,1.977,1.469,2.902,2.158c0.845,0.75,1.658,1.467,2.415,2.148
				c0.756,0.669,1.47,1.285,2.106,1.883c0.633,0.619,1.178,1.219,1.677,1.729c0.839,0.862,1.502,1.611,1.996,2.155
				C307.072,29.946,307.166,30.18,307.247,30.416z"/>
			<path fill="#EA7A24" d="M258.503,59.053c0,0-3.09-9.026-1.426-10.514c1.668-1.479,21.154-6.159,22.642-5.129
				c1.502,1.026,4.854,11.822,4.26,12.494L258.503,59.053z"/>
		</g>
	</g>
	<polygon fill="#FECD87" points="269.324,224.812 269.542,227.301 269.324,224.82 	"/>
	<polygon fill="#FECD87" points="275.028,252.13 280.927,278.729 269.542,227.301 	"/>
	<path fill="#FECD87" d="M227.572,375.017c0.183-24.056,0.476-43.935,1.058-43.009C227.954,330.914,227.703,348.059,227.572,375.017
		z"/>
	<path fill="#303030" d="M267.578,204.174l36.925,10.101l10.307-59.945l-40.764-15.899c0,0-10.289,14.637-15.199,30.887
		L267.578,204.174z"/>
	<path fill="#303030" d="M309.018,114.197c-8.558,3.885-20.86,9.464-30.08,13.599l0.036,0.068l-0.036,0.063l44.429,3.093
		L309.018,114.197z"/>
	<path fill="#F8941D" d="M356.46,285.897l-23.218-70.584l7.376-64.079l-17.252-20.216l-44.429-3.093l-4.892,10.505l40.763,15.899
		l-10.308,59.945l-36.923-10.101l1.746,20.646l0.218,2.481l11.385,51.427l-95.92,28.141l4.76,76.73l-0.219-3.616h37.975
		c0,1.552,0,3.14,0,4.724l0,0c0.012-3.359,0.023-6.575,0.05-9.689c0.131-26.958,0.382-33.601,1.058-32.495
		c0.481,0.796,109.905-17.206,109.905-17.206L356.46,285.897z"/>
	<g>
		<polygon fill="#F8941D" points="100.323,117.481 106.252,129.652 124.479,131.051 121.364,103.907 		"/>
		<polygon fill="#303030" points="150.774,90.928 150.774,166.525 140.622,174.084 128.9,174.084 115.622,164.839 115.622,131.332 
			115.622,119.157 68.553,119.157 57.625,108.662 57.625,92.708 73.238,82.631 140.34,82.631 		"/>
		<polygon fill="#303030" points="37.31,97.459 6.179,97.459 3.201,101.946 39.906,101.946 		"/>
		<polygon fill="#F8941D" points="57.625,108.662 37.31,108.662 37.31,92.43 57.625,92.708 		"/>
		<rect x="128.9" y="174.084" fill="#303030" width="11.328" height="18.261"/>
		<g>
			<path fill="#303030" d="M225.92,499.103c-96.601,0.006-154.108-12.598-166.505-37.43c-5.667-11.365-1.72-24.405,11.747-38.768
				c52.385-55.868,60.36-231.413,60.429-233.179l5.961,0.25c-0.307,7.302-8.156,179.537-62.049,237.008
				c-11.578,12.347-15.193,23.131-10.758,32.026c18.139,36.341,158.981,43.935,376.715,20.328l0.638,5.917
				C356.717,494.518,284.191,499.103,225.92,499.103z"/>
		</g>
	</g>
	<path fill="#FECD87" d="M293.267,191.485l-77.536,10.924l-66.915-46.896l1.701-16.65l70.243,37.479
		c0,0,46.036-12.323,60.166-15.772L293.267,191.485z"/>
	<path fill="#303030" d="M189.548,379.983l0.219,3.616l2.965,42.758l-27.071,11.896l-8.326,17.688l70.167-5.541
		c0,0-0.068-28.397,0-57.896c0.021-4.165,0.014-3.678,0.021-7.799c0-1.583,0-3.171,0-4.724L189.548,379.983L189.548,379.983z"/>
	<path fill="#303030" d="M441.785,444.56l-18.615-12.447c0,0-7.938-30.437-8.825-35.277c-1.663,1.914-12.76,7.219-27.241,13.642
		l-3.265-33.895l52.897-18.44L441.785,444.56z"/>
	<polygon fill="#FECD87" points="150.518,138.863 133.536,122.612 107.74,122.612 112.987,160.571 137.364,160.571 150.518,156.704 
			"/>
</g>
</svg>
