<?xml version="1.0" encoding="utf-8"?>
<!-- Generator: Adobe Illustrator 16.0.0, SVG Export Plug-In . SVG Version: 6.00 Build 0)  -->
<!DOCTYPE svg PUBLIC "-//W3C//DTD SVG 1.1//EN" "http://www.w3.org/Graphics/SVG/1.1/DTD/svg11.dtd">
<svg version="1.1" id="Layer_1" xmlns="http://www.w3.org/2000/svg" xmlns:xlink="http://www.w3.org/1999/xlink" x="0px" y="0px"
	 width="200px" height="500px" viewBox="0 0 200 500" enable-background="new 0 0 200 500" xml:space="preserve">
<g>
	<g>
		<polygon fill="#FDBA5D" points="116.975,122.965 99.518,127.741 82.26,122.965 87.157,91.256 112.077,91.256 		"/>
		<g>
			<polygon fill="#5E3B23" points="72.251,47.513 75.09,58.27 123.795,58.27 127.946,47.513 			"/>
			<polygon fill="#FECE88" points="126.798,54.366 126.798,72.036 123.579,72.036 123.579,81.55 109.619,104.248 89.43,104.248 
				75.461,81.55 75.461,72.036 72.251,72.036 72.251,54.366 75.461,54.366 75.461,39.779 123.579,39.779 123.579,54.366 			"/>
			<rect x="75.461" y="46.169" opacity="0.4" fill="#878787" enable-background="new    " width="48.118" height="8.197"/>
			<polygon opacity="0.4" fill="#878787" enable-background="new    " points="93.412,81.878 99.537,62.154 105.663,81.878 			"/>
			<g>
				<rect x="68.295" y="27.905" fill="#E97A26" width="7.921" height="10.778"/>
				<rect x="122.853" y="27.905" fill="#E97A26" width="7.921" height="10.778"/>
				<path fill="#F89521" d="M128.547,39.076c0.021-0.385,0.057-0.759,0.057-1.133c0-16.058-13.017-29.076-29.066-29.076
					c-16.053,0-29.072,13.018-29.072,29.076c0,0.375,0.037,0.749,0.058,1.133H128.547z"/>
				<polygon fill="#E97A26" points="104.887,37.519 93.622,37.519 89.333,4.309 109.177,4.309 				"/>
				<path fill="#E97A26" d="M130.929,43.706c0,2.783-2.072,5.039-4.646,5.039H72.944c-2.577,0-4.65-2.256-4.65-5.039l0,0
					c0-2.77,0-5.022,0-5.022h62.479C130.774,38.683,130.929,40.936,130.929,43.706L130.929,43.706z"/>
			</g>
		</g>
		<polygon fill="#FECE88" points="170.159,159.789 199.179,211.862 172.063,250.857 160.495,238.357 172.154,202.452 
			149.79,172.611 		"/>
		<polygon fill="#FECE88" points="29.065,159.789 0.843,211.862 34.621,247.504 48.632,238.357 27.862,202.452 49.435,172.611 		"/>
		<path fill="#303030" d="M181.718,169.767l-27.807,18.568l-3.23-9.166H49.676l-3.235,9.166l-27.729-15.826l19.248-41.167
			l17.009-8.577l12.994-6.566l16.279-6.079c0,0,4.844,14.559,15.563,14.559c10.715,0,15.179-14.559,15.179-14.559l17.365,6.079
			l12.986,6.566l17.061,8.577L181.718,169.767z"/>
		<polygon fill="#F89521" points="136.031,223.73 145.356,144.632 145.315,144.632 145.336,144.623 145.336,122.765 
			132.349,116.199 132.349,144.632 67.961,144.632 67.961,116.199 54.968,122.765 54.968,144.623 54.979,144.632 64.303,223.73 
			47.063,389.465 84.574,389.465 100.175,279.282 120.99,389.465 158.179,389.465 		"/>
		<rect x="74.771" y="155.051" fill="#E97A26" width="49.681" height="34.917"/>
		<polygon fill="#303030" points="158.514,389.465 158.334,429.507 168.146,446.357 151.072,464.405 130.559,452.354 
			128.881,439.254 127.802,430.699 120.99,389.465 		"/>
		<polygon opacity="0.4" fill="#878787" enable-background="new    " points="130.559,452.354 128.105,433.128 158.334,429.507 
			168.146,446.357 151.072,464.405 		"/>
		<polygon fill="#303030" points="47.063,389.465 47.248,429.507 37.424,446.357 54.511,464.405 75.014,452.354 76.69,439.254 
			77.775,430.699 84.574,389.465 		"/>
		<polygon opacity="0.4" fill="#878787" enable-background="new    " points="75.014,452.354 77.461,433.128 47.248,429.507 
			37.424,446.357 54.511,464.405 		"/>
	</g>
	<g>
		<g>
			<rect x="77.338" y="236.571" fill="#646565" width="52.232" height="122.884"/>
			<rect x="88.186" y="242.932" opacity="0.3" fill="#878787" enable-background="new    " width="32.512" height="19.579"/>
			<rect x="90.156" y="359.477" fill="#878787" width="26.608" height="64.563"/>
			<rect x="99.028" y="424.019" fill="#646565" width="9.357" height="47.161"/>
			<rect x="95.078" y="471.159" fill="#646565" width="16.758" height="24.653"/>
			<rect x="95.078" y="488.95" opacity="0.3" fill="#878787" enable-background="new    " width="16.758" height="6.862"/>
			<rect x="129.57" y="247.01" fill="#878787" width="12.808" height="18.715"/>
			<rect x="142.378" y="247.01" fill="#646565" width="45.818" height="9.359"/>
			<rect x="64.531" y="247.01" fill="#878787" width="12.807" height="18.715"/>
			<rect x="18.712" y="247.01" fill="#646565" width="45.819" height="9.359"/>
			<rect x="90.156" y="359.477" opacity="0.3" fill="#878787" enable-background="new    " width="26.608" height="6.59"/>
		</g>
		<g>
			<rect x="84.241" y="269.676" fill="#878787" width="4.444" height="84.246"/>
			<rect x="95.572" y="269.676" fill="#878787" width="4.434" height="84.246"/>
			<rect x="106.908" y="269.676" fill="#878787" width="4.429" height="84.246"/>
			<rect x="118.24" y="269.676" fill="#878787" width="4.434" height="84.246"/>
		</g>
	</g>
	<polygon fill="#FECE88" points="48.632,238.357 61.002,242.932 57.448,262.511 37.424,262.511 34.152,247.01 	"/>
	<polygon fill="#FECE88" points="160.495,238.357 148.129,242.932 151.684,262.511 171.706,262.511 174.979,247.01 	"/>
</g>
</svg>
