<?xml version="1.0" encoding="utf-8"?>
<!-- Generator: Adobe Illustrator 16.0.0, SVG Export Plug-In . SVG Version: 6.00 Build 0)  -->
<!DOCTYPE svg PUBLIC "-//W3C//DTD SVG 1.1//EN" "http://www.w3.org/Graphics/SVG/1.1/DTD/svg11.dtd">
<svg version="1.1" id="Layer_1" xmlns="http://www.w3.org/2000/svg" xmlns:xlink="http://www.w3.org/1999/xlink" x="0px" y="0px"
	 width="220px" height="500px" viewBox="0 0 220 500" enable-background="new 0 0 220 500" xml:space="preserve">
<g>
	<g>
		<g>
			<polygon fill="#FDBA5D" points="122.696,131.806 104.044,136.912 85.594,131.806 90.832,97.919 117.463,97.919 			"/>
		</g>
		<g>
			<g>
				<polygon fill="#5E3B23" points="74.899,51.176 77.933,62.675 129.985,62.675 134.426,51.176 				"/>
			</g>
			<g>
				<polygon fill="#FECE88" points="133.194,58.503 133.194,77.384 129.754,77.384 129.754,87.547 114.835,111.809 93.256,111.809 
					78.338,87.547 78.338,77.384 74.899,77.384 74.899,58.503 78.338,58.503 78.338,42.909 129.754,42.909 129.754,58.503 				"/>
			</g>
			<g opacity="0.4">
				<rect x="78.338" y="49.741" fill="#878787" width="51.417" height="8.762"/>
			</g>
			<g opacity="0.4">
				<polygon fill="#878787" points="97.511,87.899 104.058,66.825 110.605,87.899 				"/>
			</g>
			<g>
				<g>
					<rect x="70.67" y="30.223" fill="#E97A26" width="8.47" height="11.516"/>
				</g>
				<g>
					<rect x="128.979" y="30.223" fill="#E97A26" width="8.472" height="11.516"/>
				</g>
				<g>
					<path fill="#F89521" d="M135.069,42.162c0.018-0.413,0.062-0.813,0.062-1.215c0-17.161-13.919-31.067-31.072-31.067
						c-17.153,0-31.063,13.906-31.063,31.067c0,0.401,0.039,0.802,0.061,1.215H135.069z"/>
				</g>
				<g>
					<polygon fill="#E97A26" points="109.778,40.501 97.736,40.501 93.152,5.01 114.359,5.01 					"/>
				</g>
				<g>
					<path fill="#E97A26" d="M137.615,47.114c0,2.968-2.223,5.376-4.97,5.376H75.643c-2.749,0-4.975-2.408-4.975-5.376l0,0
						c0-2.968,0-5.375,0-5.375h66.781C137.449,41.738,137.615,44.146,137.615,47.114L137.615,47.114z"/>
				</g>
			</g>
		</g>
		<g>
			<polygon fill="#FECE88" points="179.534,171.156 211.077,227.458 181.667,216.751 157.767,184.859 			"/>
		</g>
		<g>
			<polygon fill="#FECE88" points="28.755,171.156 6.057,221.874 49.666,255.123 27.468,216.751 50.523,184.859 			"/>
		</g>
		<g>
			<path fill="#303030" d="M191.893,181.825l-29.718,19.843l-3.452-9.795H50.773l-3.45,9.795L17.687,184.75l20.572-43.99
				l18.174-9.168l13.88-7.014l17.406-6.491c0,0,5.176,15.555,16.631,15.555c11.459,0,16.225-15.555,16.225-15.555l18.559,6.491
				l13.88,7.014l18.224,9.168L191.893,181.825z"/>
		</g>
		<g>
			<polygon fill="#F89521" points="143.068,239.49 153.028,154.963 152.995,154.963 153.012,154.952 153.012,131.592 
				139.132,124.578 139.132,154.963 70.312,154.963 70.312,124.578 56.432,131.592 56.432,154.952 56.446,154.963 66.403,239.49 
				47.98,416.603 88.076,416.603 104.751,298.854 127,416.603 166.738,416.603 			"/>
		</g>
		<g>
			<rect x="77.602" y="166.094" fill="#E97A26" width="53.087" height="37.317"/>
		</g>
		<g>
			<polygon fill="#303030" points="167.09,416.603 166.897,459.394 177.391,477.4 159.136,496.688 137.22,483.81 135.427,469.805 
				134.267,460.658 127,416.603 			"/>
		</g>
		<g opacity="0.4">
			<polygon fill="#878787" points="137.22,483.81 134.597,463.264 166.897,459.394 177.391,477.4 159.136,496.688 			"/>
		</g>
		<g>
			<polygon fill="#303030" points="47.98,416.603 48.175,459.394 37.688,477.4 55.941,496.688 77.857,483.81 79.646,469.805 
				80.808,460.658 88.076,416.603 			"/>
		</g>
		<g opacity="0.4">
			<polygon fill="#878787" points="77.857,483.81 80.473,463.264 48.175,459.394 37.688,477.4 55.941,496.688 			"/>
		</g>
	</g>
	<g>
		<g>
			<polygon fill="#FFFFFF" points="107.296,330.245 12.907,312.266 12.907,171.393 107.296,189.372 			"/>
			<path fill="#878787" d="M109.916,333.405l-99.631-18.975v-146.2l99.631,18.975V333.405L109.916,333.405z M15.523,310.095
				l89.156,16.979v-135.53l-89.156-16.985V310.095z"/>
		</g>
		<g>
			<polygon fill="#FFFFFF" points="107.419,330.245 201.809,312.266 201.809,171.393 107.419,189.372 			"/>
			<path fill="#878787" d="M104.8,333.405V187.207l99.625-18.975v146.2L104.8,333.405z M110.039,191.543v135.53l89.148-16.979
				V174.559L110.039,191.543z"/>
		</g>
	</g>
	<g>
		<polygon fill="#FECE88" points="6.057,221.874 18.217,214.755 31.987,230.965 18.412,247.51 3.386,239.699 		"/>
	</g>
	<g>
		<polygon fill="#FECE88" points="211.077,227.458 197.916,222.423 186.983,240.661 203.072,254.76 216.628,244.613 		"/>
	</g>
</g>
</svg>
