<?xml version="1.0" encoding="utf-8"?>
<!-- Generator: Adobe Illustrator 16.0.0, SVG Export Plug-In . SVG Version: 6.00 Build 0)  -->
<!DOCTYPE svg PUBLIC "-//W3C//DTD SVG 1.1//EN" "http://www.w3.org/Graphics/SVG/1.1/DTD/svg11.dtd">
<svg version="1.1" id="Layer_1" xmlns="http://www.w3.org/2000/svg" xmlns:xlink="http://www.w3.org/1999/xlink" x="0px" y="0px"
	 width="400px" height="500px" viewBox="0 0 400 500" enable-background="new 0 0 400 500" xml:space="preserve">
<g>
	<path fill="#FECE88" d="M221.698,137.543l-6.654-10.56l-4.983,4.091h-15.753l-8.075-23.424l-11.929-7.32l7.671-20.002l-0.154-0.333
		l-4.458-10.042v-16.82l38.544-5.554l18.729-2.693l15.391-2.22l0.025,3.432l0.088,15.507l0.25,32.496l0.025,3.927l-1.333,1.087
		l-7.442,6.104l-2.034,1.661l13.929,16.275C244.481,127.25,231.449,133.167,221.698,137.543z"/>
	<path fill="#5E3B23" d="M250.023,42.681l-19.982-27.384l-28.011,3.209l5.712,37.91c-1.193-0.751,5.42,10.967,13.455,19.804
		l3.834-5.862l9.615,3.593l1.914,9.099l-7.557,8.449c1.859,2.003,12.635,13.708,12.635,13.708l7.429-6.078l1.321-5.028
		L250.023,42.681z"/>
</g>
<g>
	<polygon fill="#FECE88" points="211.521,240.25 211.742,242.875 211.521,240.231 	"/>
	<path fill="#303030" d="M200.415,181.495c5.22-17.208,16.111-32.699,16.111-32.699l43.149,16.834l-10.93,63.45l-39.063-10.691
		L200.415,181.495z"/>
	<path fill="#303030" d="M268.727,140.95l-47.029-3.272l0.041-0.059l-0.041-0.074c9.752-4.378,22.782-10.294,31.836-14.389
		L268.727,140.95z"/>
	<polygon fill="#F89521" points="248.745,229.082 259.674,165.632 216.525,148.797 221.697,137.676 268.727,140.949 
		286.983,162.359 279.173,230.187 294.103,279.759 219.919,279.759 211.742,242.875 211.521,240.25 209.683,218.389 	"/>
	<g>
		<path fill="#E97A26" d="M385.934,397.483l-49.967,14.541l-39.479,8.177l9.247-109.226l-68.723,0.121l14.703,168.532
			c0,0,52.977-21.295,87.769-36.704c15.59-6.925,27.538-12.636,29.329-14.696c0.951,5.213,9.497,51.393,9.497,51.393l20.036,13.417
			L385.934,397.483z"/>
		<path fill="#FECE88" d="M222.66,289.826c0.834,3.747,1.67,7.489,2.498,11.234c-0.902-4.067-1.806-8.122-2.707-12.176
			L222.66,289.826z"/>
		<path fill="#FECE88" d="M168.849,358.436c-0.626-1.004-0.942,20.412-1.144,46.314
			C167.845,375.717,168.129,357.256,168.849,358.436z"/>
		<path fill="#F89521" d="M284.056,246.374l22.436,62.405l-19.303,42.45c0,0-117.827,19.376-118.338,18.526
			c-0.722-1.185-1.003,5.961-1.146,34.995c-0.026,3.348-0.033,6.802-0.039,10.426c0-1.698,0-3.415,0-5.093h-40.902l0.242,3.894
			l-5.132-82.609l100.578-30.308l-8.048-48.572L284.056,246.374z"/>
		<path fill="#303030" d="M126.764,410.084h40.9c0,1.679,0,3.395,0,5.093c-0.014,4.438,0,3.907-0.027,8.396
			c-0.08,31.757,0,62.334,0,62.334l-75.552,5.979l8.964-19.045l29.148-12.824l-3.192-46.04L126.764,410.084L126.764,410.084z"/>
		<path fill="#303030" d="M385.934,397.483l-49.967,14.54l3.517,30.901c15.59-6.925,13.799-4.864,15.59-6.925
			c0.949,5.213,12.083,41.084,12.083,41.084l31.189,15.954L385.934,397.483z"/>
	</g>
</g>
<rect x="1.507" y="94.304" fill="#303030" width="43.567" height="7.62"/>
<path fill="#FECE88" d="M224.318,164.865c-15.215,3.706-64.791,16.981-64.791,16.981l-75.625-40.355l-1.839,17.921l72.05,50.495
	l83.478-11.762L224.318,164.865z"/>
<polygon fill="#878787" points="58.309,89.289 70.491,199.082 51.735,199.583 37.829,90.104 "/>
<polygon fill="#878787" points="209.669,8.849 176.824,17.062 159.812,44.594 181.181,134.429 194.017,144.435 221.738,123.128 
	223.793,90.084 223.793,61.4 "/>
<polygon fill="#303030" points="172.358,94.304 198.428,85.48 191.822,62.221 166.566,72.896 "/>
<polygon fill="#878787" points="223.805,68.236 249.646,55.399 250.389,49.385 223.805,61.417 "/>
<polygon opacity="0.4" fill="#878787" enable-background="new    " points="209.669,8.849 176.824,17.062 202.032,68.267 
	204.84,111.548 194.017,144.435 221.738,123.128 223.793,90.084 223.793,61.4 "/>
<polygon fill="#F89521" points="83.901,141.492 65.617,123.987 37.829,123.987 43.493,164.865 69.739,164.865 83.901,160.702 
	120.223,199.082 132.251,161.278 "/>
<polygon fill="#F89521" points="31.013,29.531 18.984,23.92 2.134,86.885 "/>
<polygon fill="#E97A26" points="52.605,65.63 46.434,58.81 9.428,86.098 "/>
<polygon fill="#F89521" points="23.288,152.456 34.327,148.797 12.263,111.548 "/>
<polygon fill="#E97A26" points="19.079,177.708 9.428,180.297 6.208,107.858 "/>
</svg>
